<?xml version="1.0" encoding="UTF-8" standalone="no"?>
<!-- Created with Inkscape (http://www.inkscape.org/) -->

<svg
   xmlns:dc="http://purl.org/dc/elements/1.1/"
   xmlns:cc="http://creativecommons.org/ns#"
   xmlns:rdf="http://www.w3.org/1999/02/22-rdf-syntax-ns#"
   xmlns:svg="http://www.w3.org/2000/svg"
   xmlns="http://www.w3.org/2000/svg"
   xmlns:sodipodi="http://sodipodi.sourceforge.net/DTD/sodipodi-0.dtd"
   xmlns:inkscape="http://www.inkscape.org/namespaces/inkscape"
   width="210mm"
   height="297mm"
   viewBox="0 0 210 297"
   version="1.1"
   id="svg4111"
   inkscape:version="0.92.4 (f8dce91, 2019-08-02)"
   sodipodi:docname="blue.svg">
  <defs
     id="defs4105" />
  <sodipodi:namedview
     id="base"
     pagecolor="#ffffff"
     bordercolor="#666666"
     borderopacity="1.0"
     inkscape:pageopacity="0.0"
     inkscape:pageshadow="2"
     inkscape:zoom="2.84"
     inkscape:cx="97.977965"
     inkscape:cy="1032.0482"
     inkscape:document-units="mm"
     inkscape:current-layer="layer1"
     showgrid="false"
     inkscape:window-width="1748"
     inkscape:window-height="773"
     inkscape:window-x="981"
     inkscape:window-y="847"
     inkscape:window-maximized="0" />
  <metadata
     id="metadata4108">
    <rdf:RDF>
      <cc:Work
         rdf:about="">
        <dc:format>image/svg+xml</dc:format>
        <dc:type
           rdf:resource="http://purl.org/dc/dcmitype/StillImage" />
        <dc:title />
      </cc:Work>
    </rdf:RDF>
  </metadata>
  <g
     inkscape:label="Layer 1"
     inkscape:groupmode="layer"
     id="layer1">
    <path
       style="fill:none;stroke:#000000;stroke-width:0.17482623px;stroke-linecap:butt;stroke-linejoin:miter;stroke-opacity:1"
       d="m 3.6043766,1.9779303 c 0,0.073602 -0.055971,0.1687452 0,0.2208129 0.055971,0.052068 0.1814164,0.052068 0.237367,0 0.055971,-0.052068 0.07912,-0.2208129 0,-0.2208129 -0.1769291,0 0.060424,0.4416258 0.23736,0.4416258 0.079127,0 -0.07912,-0.2208129 0,-0.2208129 0.076537,0 0.3428489,0.3802535 0.4747338,0.4416258 0.070769,0.032885 0.1665981,-0.032949 0.237367,0 0.084895,0.039513 0.8836587,0.7914162 0.9494676,0.8832452 0.098138,0.1369438 0.07912,0.3680237 0.2373669,0.4416259 0.1000835,0.046523 0.1254726,-0.2208129 0.2373669,-0.2208129 0.076537,0 0.342842,0.3802534 0.4747339,0.4416258 0.070769,0.032948 0.166598,-0.032885 0.2373669,0 0.200167,0.093104 0.2745668,0.3485221 0.4747338,0.4416258 0.070769,0.032949 0.166598,-0.032885 0.2373669,0 0.2848362,0.132489 0.4272577,0.5299497 0.7121008,0.6624387 0.070762,0.032885 0.1814163,-0.052068 0.2373669,0 0.055971,0.052068 -0.055971,0.1687452 0,0.2208129 0.3164869,0.2944151 0.2373669,-0.3680237 0.2373669,0.2208129 0.055971,0.052068 0.1814095,-0.052068 0.23736,0 0.055971,0.052068 -0.055971,0.1687452 0,0.2208129 0.055971,0.052068 0.1665981,-0.032885 0.237367,0 0.1000835,0.046523 0.1372902,0.1742897 0.2373669,0.2208129 0.070769,0.032885 0.166598,-0.032885 0.2373669,0 0.200167,0.093104 0.2885283,0.32614 0.4747343,0.4416258 0.14721,0.091294 0.327523,0.1295128 0.474733,0.2208129 0.349282,0.2166131 0.600186,0.6666322 0.949468,0.8832452 0.06584,0.040851 0.171531,-0.040851 0.237367,0 0.186205,0.1154794 0.295701,0.3167144 0.474727,0.4416258 0.141544,0.09875 0.349631,0.104435 0.474734,0.2208129 0.201729,0.187654 0.230112,0.5259029 0.474734,0.6624387 0.203544,0.1136058 0.514598,-0.1224833 0.7121,0 0.131666,0.081658 -0.07077,0.309959 0,0.4416259 0.100084,0.1862073 0.334936,0.2790624 0.474734,0.4416258 0.17821,0.2072259 0.296524,0.4552069 0.474734,0.6624319 0.349501,0.406415 0.82866,0.70424 1.186834,1.104065 0.182629,0.203873 0.292099,0.458565 0.474734,0.662439 0.4298,0.479794 0.994396,0.845083 1.424195,1.324877 0.182636,0.203873 0.292105,0.458565 0.474734,0.662439 0.214903,0.239894 0.497197,0.422538 0.712101,0.662432 0.182628,0.203873 0.292098,0.458565 0.474733,0.662439 0.593849,0.662923 0.979721,0.718732 1.424195,1.54569 0.145895,0.27144 0.122821,0.599091 0.237367,0.883252 0.624218,1.548233 0.260803,0.264404 0.949468,1.545684 0.111894,0.208188 0.138804,0.448502 0.237366,0.662438 0.54255,1.177667 0.394004,0.509996 0.712101,1.545691 0.08962,0.291795 0.122822,0.59909 0.237367,0.883245 0.12424,0.308213 0.424696,0.557392 0.474734,0.883252 0.03535,0.230417 -0.237367,0.429682 -0.237367,0.662438 0,0.232755 0.15824,0.441626 0.237367,0.662438 0.15824,0.441626 0.288885,0.892659 0.474734,1.324871 0.0657,0.152813 0.171661,0.288814 0.237367,0.441627 0.287405,0.668409 0.237367,0.514233 0.237367,1.104064 0,0.220813 -0.04659,0.445915 0,0.662438 0.03467,0.161391 0.19446,0.281956 0.237367,0.441626 0.03836,0.142814 -0.03103,0.297277 0,0.441625 0.04905,0.228239 0.196234,0.432844 0.237366,0.662433 0.05207,0.290413 0,0.588836 0,0.883251 0,0.662439 0,1.324879 0,1.987317 0,0.809644 0,1.619293 0,2.428936 0,0.187392 0.04364,1.203145 0,1.324876 -0.03535,0.09875 -0.21023,0.119827 -0.237366,0.220813 -0.05755,0.214218 0.04659,0.445916 0,0.66244 -0.03467,0.161383 -0.194461,0.28195 -0.237367,0.441619 -0.03837,0.14282 0.03836,0.298811 0,0.441626 -0.08582,0.319339 -0.388914,0.56391 -0.474734,0.883251 -0.07676,0.285627 0.141538,0.619918 0,0.883251 -0.100084,0.186207 -0.350597,0.268407 -0.474734,0.441626 -0.04391,0.06124 0.02501,0.150984 0,0.220813 -0.573118,1.599435 0.06844,-0.34814 -0.474734,0.66244 -0.03542,0.06583 0.03535,0.154971 0,0.220812 -0.05494,0.102248 -0.809862,0.753375 -0.949468,0.883244 -0.362469,0.337191 -0.187321,0.12771 -0.474733,0.662439 -0.05597,0.05207 -0.181417,-0.05207 -0.237367,0 -0.491114,0.456859 0.750499,-0.01784 -0.237367,0.441627 -0.07077,0.03289 -0.166591,-0.03289 -0.237367,0 -0.100084,0.04652 -0.131207,0.187927 -0.237367,0.220813 -0.150122,0.04652 -0.324605,-0.04652 -0.474734,0 -0.106153,0.03289 -0.137283,0.174289 -0.23736,0.220813 -0.07077,0.03289 -0.166598,-0.03289 -0.237367,0 -1.086333,0.505292 1.007241,-0.09152 -0.712101,0.441625 -0.07506,0.02326 -0.162302,-0.02326 -0.237366,0 -0.167845,0.05207 -0.297812,0.220813 -0.474734,0.220813 -0.111895,0 -0.137284,-0.267337 -0.237367,-0.220813 -0.15824,0.0736 -0.09016,0.350326 -0.237367,0.441626 -0.131666,0.08165 -0.316487,0 -0.474734,0 -0.474734,0 -0.949461,0 -1.424195,0 -0.165097,0 -1.100993,-0.03996 -1.186834,0 -0.100084,0.04652 -0.125473,0.220813 -0.237367,0.220813 -0.111894,0 -0.137283,-0.17429 -0.237367,-0.220813 -0.139558,-0.06492 -0.75461,0.04531 -0.949468,0 -0.242738,-0.05647 -0.469362,-0.164348 -0.7121,-0.220813 -0.07676,-0.01784 -0.166592,0.03289 -0.237367,0 -0.100084,-0.04652 -0.131207,-0.187928 -0.237367,-0.220813 -0.150122,-0.04652 -0.333189,0.06583 -0.474727,0 -0.07077,-0.03289 0.06584,-0.179961 0,-0.220812 -0.208189,-0.129113 -0.488312,-0.116722 -0.712101,-0.220813 -0.200167,-0.0931 -0.274567,-0.348522 -0.474734,-0.441626 -0.1317,-0.06124 -0.842211,-0.142303 -0.949467,-0.441627 -0.050011,-0.139651 0.08778,-0.319142 0,-0.441626 C 9.8169939,42.554365 9.3140141,42.619376 9.0638019,42.38662 8.9386993,42.270242 8.9245798,42.081939 8.8264419,41.944994 8.7643735,41.858384 8.6244594,41.822939 8.589075,41.724188 c -0.050011,-0.139659 0.050011,-0.301974 0,-0.441625 -0.072495,-0.202319 -0.5957808,-0.387519 -0.7121008,-0.441627 -0.055971,-0.156139 0.316487,-0.294414 0.2373669,-0.441626 -0.070776,-0.131667 -0.333196,0.06583 -0.4747338,0 -0.070769,-0.03289 -0.03535,-0.154978 0,-0.220813 0.050011,-0.0931 0.3164869,-0.14721 0.2373669,-0.220812 -0.1119011,-0.104091 -0.3628395,0.10409 -0.4747338,0 -0.079127,-0.0736 0.2874121,-0.12771 0.2373669,-0.220813 -0.079127,-0.14721 -0.3164938,-0.14721 -0.4747338,-0.220813 0.07912,-0.0736 0.2373669,-0.116722 0.2373669,-0.220813 0,-0.104091 -0.1752986,-0.134203 -0.2373669,-0.220813 C 7.0667356,38.937489 7.0066266,38.780018 6.9275066,38.632808 6.7692597,38.338392 6.584185,38.055181 6.4527727,37.749556 6.3598483,37.533453 6.3273001,37.295305 6.2154058,37.087123 6.0878232,36.849754 5.7810164,36.687401 5.740672,36.424685 5.694566,36.124253 6.0241723,35.841865 5.9780389,35.541434 5.9376876,35.278717 5.5935166,35.130762 5.5033051,34.878995 c -0.075058,-0.209481 0,-0.441625 0,-0.66244 0,-0.883244 0,-1.766495 0,-2.649748 2.4784591,-3.842685 -0.4150838,0.44125 1.1868346,-1.54569 0.1061533,-0.131667 0.1122642,-0.325247 0.2373669,-0.441625 0.055971,-0.05207 0.1934737,0.06125 0.2373669,0 0.1387906,-0.193665 0.1254726,-0.454252 0.2373669,-0.662433 0.1275758,-0.23737 0.3035663,-0.450134 0.4747338,-0.662439 0.067138,-0.08328 0.1873218,-0.127709 0.2373669,-0.220812 0.1118943,-0.208189 0.1444425,-0.446329 0.237367,-0.662439 0.1314122,-0.305625 0.3889137,-0.563912 0.4747338,-0.883252 0.038365,-0.142813 -0.038365,-0.298812 0,-0.441626 0.042886,-0.15967 0.1944534,-0.281956 0.23736,-0.441626 0.038365,-0.142813 -0.050011,-0.301966 0,-0.441619 0.03535,-0.09875 0.1582469,-0.294422 0.237367,-0.220813 0.079127,0.0736 -0.237367,0.324904 -0.237367,0.220813 0,-0.533149 0.2940369,-0.326249 0.4747339,-0.662438 0.2923104,-0.543849 -0.6890067,0.199336 0.2373669,-0.662439 0.055971,-0.05207 0.2123477,0.06983 0.2373673,0 0.07506,-0.209481 -0.046517,-0.445914 0,-0.662438 -0.1430659,-0.39966 0.384522,-0.410672 0.474733,-0.662439 0.05001,-0.139652 -0.07077,-0.309959 0,-0.441626 0.03535,-0.06583 0.237367,0.07361 0.237367,0 0,-0.104091 -0.237367,-0.116716 -0.237367,-0.220813 0,-0.0736 0.181417,0.05207 0.237367,0 0.125103,-0.116378 0.158247,-0.294415 0.237367,-0.441619 0.07912,-0.147211 0.237367,-0.277042 0.237367,-0.441626 0,-0.07361 -0.272751,0.06583 -0.237367,0 0.100084,-0.186207 0.340458,-0.275079 0.474734,-0.441626 0.106153,-0.131667 0.139229,-0.304682 0.237367,-0.441626 0.06207,-0.08661 0.187322,-0.127709 0.237367,-0.220812 0.03535,-0.06583 -0.03535,-0.15498 0,-0.220813 0.06597,-0.122694 0.474734,-0.370427 0.474734,-0.441626 0,-0.104091 -0.287412,-0.127709 -0.237367,-0.220813 0.07912,-0.147204 0.349631,-0.104435 0.474734,-0.220813 0.125102,-0.116378 0.139222,-0.304682 0.237367,-0.441626 0.07683,-0.107213 0.474727,-0.399028 0.474727,-0.441626 0,-0.10409 -0.287406,-0.127709 -0.237361,-0.220812 0.653623,-1.216084 0.249452,0.20957 0.712094,-0.220807 0.125103,-0.116384 0.237367,-0.277042 0.237367,-0.441626 0,-0.104097 -0.316487,-0.147211 -0.237367,-0.220813 0.111902,-0.10409 0.343068,0.08166 0.474734,0 0.14721,-0.09129 0.112264,-0.325248 0.237367,-0.441626 0.05597,-0.05207 -0.05597,0.272856 0,0.220813 0.125103,-0.116378 0.237367,-0.277042 0.237367,-0.441625 0,-0.104091 -0.316487,-0.147211 -0.237367,-0.220813 0.111894,-0.104091 0.316487,0 0.474734,0 0.07912,0 -0.272751,0.06583 -0.237367,0 1.345075,-1.251269 0.237367,0.0736 0.237367,-0.662439 0,-0.0736 0.166598,0.03288 0.237367,0 0.100083,-0.04652 0.187328,-0.127709 0.237367,-0.220813 0.03535,-0.06583 -0.03535,-0.154979 0,-0.220813 0.180697,-0.33619 0.474734,-0.12929 0.474734,-0.662439 0,-0.164583 -0.316487,-0.294415 -0.237367,-0.441619 0.07077,-0.131673 0.333196,0.06583 0.474733,0 0.07077,-0.03295 -0.03535,-0.154979 0,-0.220813 0.163516,-0.304229 0.712101,-0.433481 0.712101,-0.883251 0,-0.164584 -0.316494,-0.294416 -0.237367,-0.441626 0.07077,-0.131667 0.324605,0.04652 0.474734,0 0.106153,-0.03289 0.23736,-0.116722 0.23736,-0.220813 0,-0.0736 -0.23736,0.0736 -0.23736,0 0,-0.164584 0.139222,-0.304682 0.23736,-0.441626 0.06207,-0.08661 0.13729,-0.174258 0.237367,-0.220813 0.07077,-0.03289 0.237367,0.0736 0.237367,0 0,-0.164584 -0.316487,-0.294415 -0.237367,-0.441626 0.07077,-0.131667 0.316494,0 0.474734,0 0.07913,0 -0.272751,0.06583 -0.237367,0 0.100084,-0.186201 0.403965,-0.244125 0.474734,-0.441626 0.03535,-0.09875 -0.287405,-0.127709 -0.237367,-0.220812 0.0014,-0.0032 0.712101,-0.2715236 0.712101,-0.4416198 0,-0.1040972 -0.287406,-0.1277157 -0.237367,-0.2208129 0.07913,-0.1472108 0.327523,-0.1295192 0.474734,-0.220813 0.0931,-0.05774 0.237367,-0.1167221 0.237367,-0.2208129 0,-0.073609 -0.316487,0 -0.237367,0 0.158246,0 0.362839,0.1040908 0.474733,0 0.111895,-0.1040971 -0.05001,-0.3019735 0,-0.4416258 0.0509,-0.1420485 0.949468,-0.8041049 0.949468,-0.8832516 0,-0.1040907 -0.287412,-0.1277092 -0.237367,-0.2208129 0.07912,-0.1472107 0.349631,-0.1044349 0.474734,-0.2208129 0.125103,-0.116378 0.139222,-0.304682 0.237367,-0.4416258 0.06207,-0.08661 0.23736,-0.1167157 0.23736,-0.2208129 0,-0.1040908 -0.316487,-0.1472043 -0.23736,-0.2208129 0.111894,-0.1040908 0.362833,0.1040972 0.474727,0 0.07913,-0.073602 -0.287405,-0.1277092 -0.237367,-0.2208129 0.07913,-0.1472043 0.395614,-0.073602 0.474734,-0.2208129 0.05001,-0.093097 -0.287405,-0.1277092 -0.237367,-0.2208065 0.07913,-0.1472108 0.349631,-0.1044349 0.474734,-0.2208129 0.05597,-0.052068 -0.03535,-0.1549795 0,-0.2208129 0.06597,-0.1226937 0.474734,-0.3704263 0.474734,-0.4416258 0,-0.1040908 -0.287406,-0.1277093 -0.237367,-0.2208129 0.07913,-0.1472108 0.395613,-0.073602 0.474733,-0.2208129 0.05001,-0.093104 -0.237366,-0.1167222 -0.237366,-0.2208129 0,-0.2081816 0.474733,-0.2334443 0.474733,-0.4416258 0,-0.073602 -0.237367,0.073602 -0.237367,0 0,-0.1645837 0.139229,-0.3046821 0.237367,-0.4416259 0.06207,-0.08661 0.237367,-0.1167221 0.237367,-0.2208129 0,-0.1040907 -0.237367,-0.1167221 -0.237367,-0.2208129 -0.429833,-0.9238223 0.374651,-0.2554184 0.474734,-0.4416258 0.106154,-0.1975003 0,-0.4416194 0,-0.6624323 0,-0.073609 0,-0.1472107 0,-0.2208129 0,-0.073609 -0.07912,-0.2208129 0,-0.2208129 0.07912,0 0.05597,0.1687643 0,0.2208129 -0.05597,0.052068 -0.158247,0 -0.237367,0 -0.158247,0 -0.362839,0.1040908 -0.474734,0 -0.111894,-0.1040972 0.111895,-0.337535 0,-0.4416258 -0.07912,-0.073609 -0.137283,0.2673615 -0.237366,0.2208129 C 22.198088,1.241883 22.277209,0.94746796 22.118962,0.87386579 22.018878,0.8272789 21.960722,1.1682809 21.881595,1.0946787 21.693574,0.91976438 22.233356,0.10501652 21.406861,0.87386579 c -0.05597,0.0520677 0.181423,0.0520677 0.237367,0 0.05597,-0.0520677 0.05597,-0.16877071 0,-0.22081291 -0.05597,-0.0520677 -0.15824,0 -0.237367,0"
       id="path3869"
       inkscape:connector-curvature="0" />
    <path
       style="fill:none;stroke:#000000;stroke-width:0.17482623px;stroke-linecap:butt;stroke-linejoin:miter;stroke-opacity:1"
       d="m 7.1648735,39.516059 c 0.7912207,-0.588831 1.54357,-1.225956 2.3736623,-1.766503 0.064809,-0.04219 -0.055971,0.16877 0,0.220813 0.1251026,0.116385 0.3496311,0.104435 0.4747342,0.220813 0.05597,0.05207 -0.055972,0.16877 0,0.220813 0.05597,0.05207 0.181423,-0.05207 0.237367,0 0.125102,0.116378 0.112264,0.325247 0.237366,0.441626 0.05597,0.05207 0.160611,-0.01784 0.237367,0 0.242738,0.05647 0.497547,0.101063 0.712101,0.220812 0.191898,0.107111 0.257625,0.391132 0.474734,0.441626 0.17164,0.0399 0.303094,-0.180892 0.474727,-0.220813 0.193028,-0.04487 1.175716,0 1.424201,0 0.07912,0 0.158247,0 0.237367,0 0.07912,0 0.166598,0.03289 0.237367,0 0.06303,-0.02932 0.680587,-0.603808 0.712101,-0.662438 0.03535,-0.06583 -0.03535,-0.15498 0,-0.220813 0.100083,-0.1862 0.37465,-0.255419 0.474734,-0.441626 0.03535,-0.06583 -0.07912,-0.220813 0,-0.220813 0.111894,0 0.15824,0.294421 0.237367,0.220813 0.111894,-0.104091 0,-0.294415 0,-0.441619 0,-0.145102 0.04467,-0.537858 0,-0.66244 -0.06986,-0.194944 -0.586882,-1.150148 -0.712101,-1.324876 -0.06207,-0.08661 -0.175299,-0.134203 -0.237367,-0.220813 -0.09814,-0.136938 -0.07912,-0.368025 -0.237367,-0.441626 -0.100083,-0.04652 -0.137283,0.267361 -0.237367,0.220813 -0.158247,-0.0736 -0.112264,-0.325247 -0.237367,-0.441625 -0.0095,-0.0089 -0.862291,0 -0.949467,0 -0.556663,0 0.111901,-0.05207 -0.474734,0.220812 -0.07076,0.03288 -0.181417,-0.05207 -0.237367,0 -0.05597,0.05207 0.05597,0.168771 0,0.220813 -0.05597,0.05207 -0.15824,0 -0.23736,0 -0.07913,0.0736 -0.175299,0.134203 -0.237367,0.220813 -0.09815,0.136943 -0.112264,0.325247 -0.237367,0.441625 -0.05597,0.05207 -0.171537,-0.04085 -0.237367,0 -0.186205,0.11548 -0.316487,0.294416 -0.474734,0.441626 -0.07912,0.0736 0.158247,-0.294415 0.237367,-0.220813 0.07912,0.0736 -0.187328,0.12771 -0.237367,0.220813 -0.03535,0.06583 0,0.147205 0,0.220813 -0.158247,0.147205 -0.316487,0.294415 -0.474734,0.441625 -0.07912,0.0736 0.158247,-0.29442 0.237367,-0.220813 0.111895,0.104091 0,0.294416 0,0.441626 0,0.0736 0,-0.29442 0,-0.220813 0,0.147205 0,0.294416 0,0.441626 0,0.0736 0.07912,0.220814 0,0.220814 -0.07912,0 0,-0.147212 0,-0.220814 -1.1868342,0.736041 -2.3736619,1.472082 -3.5604965,2.208123"
       id="path3873"
       inkscape:connector-curvature="0" />
    <path
       style="fill:none;stroke:#000000;stroke-width:0.17482623px;stroke-linecap:butt;stroke-linejoin:miter;stroke-opacity:1"
       d="m 7.8769742,40.840936 c -2.8436827,3.306694 -0.3886945,-0.01931 -0.9494676,1.545684 -0.1114627,0.311062 -0.8083615,0.354118 -0.9494677,0.441625 -0.065836,0.04085 0.065836,0.179989 0,0.220813 -0.2373669,0.0736 -0.4747338,0.147212 -0.7121007,0.220813 0,0.0736 0.055971,0.168765 0,0.220814 -0.055971,0.05207 -0.1582401,0 -0.2373669,0 -0.1582401,0 -0.3331961,-0.06583 -0.4747339,0 -1.2233494,0.569017 -0.229831,0.206798 -0.4747338,0.662439 -0.050011,0.0931 -0.1873217,0.127709 -0.23736,0.220813 -0.03535,0.06583 0.07912,0.220812 0,0.220812 -0.1119012,0 -0.1582469,-0.294422 -0.237367,-0.220812 -0.1119011,0.10409 0,0.294414 0,0.441625 0,0.0736 -0.079127,-0.220813 0,-0.220813 0.07912,0 0.055971,0.168764 0,0.220813 -0.1251095,0.116378 -0.3956138,0.0736 -0.4747338,0.220813 -0.050011,0.0931 0.2874053,0.127709 0.2373669,0.220813 -0.079127,0.147204 -0.3956138,0.0736 -0.4747338,0.220806 -0.050011,0.0931 0.2874052,0.127716 0.2373669,0.220813 -0.079127,0.147211 -0.3765959,0.08388 -0.4747338,0.220813 -0.087779,0.12249 0.05878,0.30495 0,0.441626 -0.1059478,0.246407 -0.2730117,0.474785 -0.4747338,0.662439 -0.055971,0.05207 -0.2123478,-0.06982 -0.237367,0 -0.075064,0.209481 0,0.441626 0,0.662438 0,0.147211 0.1118943,0.337535 0,0.441626 -0.1118943,0.104091 -0.343068,-0.08166 -0.4747338,0 -0.63297385,0.392554 0,0.490692 0,0.883252 0,0.0736 -0.166598,-0.03295 -0.2373669,0 -0.1000835,0.04652 -0.23736691,0.116716 -0.23736691,0.220813 0,0.104091 0.20198251,0.122056 0.23736691,0.220813 0.050011,0.139652 0,0.294415 0,0.441619 0,0.07361 0.07912,0.220813 0,0.220813 -0.07912,0 0,-0.294415 0,-0.220813 0,0.368024 0,0.736041 0,1.104065 0,0.58883 0,1.177666 0,1.766503 0,0.09944 -0.036104,0.595235 0,0.662432 0.065973,0.122694 0.4747338,0.370426 0.4747338,0.441626 0,0.104097 -0.2874052,0.127709 -0.2373669,0.220813 0.07912,0.147211 0.3956138,0.07361 0.4747338,0.220813 0.050011,0.0931 -0.2874052,0.127709 -0.2373669,0.220813 0.07912,0.14721 0.3496312,0.104435 0.4747339,0.220813 0.1118943,0.10409 -0.1118943,0.337535 0,0.441625 0.1251026,0.116378 0.3068889,0.168765 0.4747338,0.220813 0.075058,0.02326 0.2019825,-0.06583 0.2373669,0 0.070769,0.131667 0,0.294415 0,0.441626 0,0.0736 -0.079127,0.220813 0,0.220813 0.1769222,0 0.2978116,-0.220813 0.4747338,-0.220813 0.1118943,0 -0.2874121,0.127709 -0.2373669,0.220813 0.07912,0.147204 0.2978048,0.220813 0.4747338,0.220813 0.1118943,0 -0.3164937,-0.294415 -0.2373669,-0.220813 0.1582401,0.147204 0.316487,0.294415 0.4747339,0.441626 0.07912,0.0736 -0.3492681,-0.220813 -0.237367,-0.220813 0.1769222,0 0.3496243,0.104435 0.474727,0.220813 0.055971,0.05207 0.079127,0.220813 0,0.220813 -0.07912,0 -0.07912,-0.220813 0,-0.220813 0.1769291,0 0.3275305,0.129513 0.4747338,0.220813 0.093103,0.05774 0.1254727,0.220813 0.237367,0.220813 0.079127,0 -0.07912,-0.220813 0,-0.220813 0.1119011,0 0.1372834,0.174258 0.2373669,0.220813 0.070769,0.03288 0.166598,-0.03289 0.2373669,0 0.1000835,0.04652 0.1254726,0.220813 0.2373669,0.220813 0.6793265,0 -0.1474774,-0.413757 0.4747338,-0.220813 0.1678449,0.05207 0.306889,0.168764 0.4747338,0.220813 0.075064,0.02326 0.1582469,0 0.237367,0 0.1582469,0 0.3164869,0 0.4747338,0 0.5538538,0 1.1077077,0 1.6615684,0 0.15824,0 0.3164869,0 0.474727,0 0.079127,0 0.2373669,-0.07361 0.2373669,0 0,0.0736 -0.316487,0 -0.2373669,0 0.1582468,0 0.3164937,0 0.4747338,0 0.079127,0 -0.316487,0 -0.2373669,0 0.1582469,0 0.3164938,0 0.4747342,0 0.07913,0 -0.3164873,0 -0.2373673,0 0.1582469,0 0.3628393,0.10409 0.4747343,0 0.07913,-0.07361 -0.125473,-0.220813 -0.237367,-0.220813 -0.1582404,0 0.07077,0.309959 0,0.441619 -0.050011,0.0931 -0.1873221,0.127716 -0.2373673,0.220813 -0.035419,0.06583 0.03535,0.154979 0,0.220813 -0.050011,0.0931 -0.2373669,0.116722 -0.2373669,0.220813 0,0.104091 0.1873286,0.127709 0.2373669,0.220813 0.03535,0.06583 0,0.14721 0,0.220813 0,0.0736 0,0.14721 0,0.220812 0,0.368024 0,0.736041 0,1.104065 0,0.220813 -0.1316658,0.47871 0,0.662439 0.087779,0.122483 0.3331963,-0.06583 0.4747343,0 0.07077,0.03289 0,0.147204 0,0.220813 0.158246,0.147204 0.262427,0.375789 0.474733,0.441622 0.106154,0.03292 0.125473,-0.220816 0.237367,-0.220816 0.07912,0 -0.05597,0.168769 0,0.220816 0.125103,0.116378 0.297812,0.220812 0.474734,0.220812 0.111894,0 0.137283,-0.17426 0.237367,-0.220812 0.189891,-0.08833 0.522203,0.08832 0.712094,0 0.100083,-0.04655 0.13729,-0.174261 0.237367,-0.220816 0.07078,-0.03289 0.158247,0 0.237367,0 0.237367,-0.147204 0.510378,-0.253965 0.7121,-0.441619 0.05597,-0.05207 0,-0.147211 0,-0.220813 0.07913,-0.147211 0.09016,-0.350332 0.237367,-0.441626 0.357373,-0.221635 0.662213,0.313623 0.949468,-0.220813 0.106153,-0.1975 -0.05755,-0.448215 0,-0.662439 0.02713,-0.100987 0.201982,-0.122062 0.237367,-0.220813 0.05001,-0.139652 -0.07077,-0.309958 0,-0.441625 0.100083,-0.186208 0.340458,-0.27508 0.474734,-0.441626 0.106153,-0.131667 0.139229,-0.304682 0.237367,-0.441626 0.06207,-0.08661 0.237367,-0.116716 0.237367,-0.220806 0,-0.232763 -0.237367,-0.429683 -0.237367,-0.662439 0,-0.271925 1.199131,0.673872 0,-0.441626 -0.125103,-0.116378 -0.349631,-0.104435 -0.474734,-0.220813 -0.05597,-0.05207 0.158247,0 0.237367,0 -0.158247,-0.147211 -0.288529,-0.326146 -0.474734,-0.441626 -0.06584,-0.04085 -0.181416,0.05207 -0.237367,0 -0.125103,-0.116378 -0.09016,-0.350332 -0.237367,-0.441626 -0.237367,-0.14721 -0.474734,0.0736 -0.712101,0 -0.167845,-0.05207 -0.333196,-0.122062 -0.474733,-0.220812 -0.179033,-0.124912 -0.257625,-0.391133 -0.474734,-0.441626 -0.171634,-0.0399 -0.316487,0.294421 -0.474734,0.220813 -0.141538,-0.06583 0.141544,-0.375793 0,-0.441626 -0.15824,-0.0736 -0.306889,0.168771 -0.474727,0.220813 -0.07506,0.02326 -0.158247,0 -0.237367,0 -0.07913,0 -0.237367,0.07361 -0.237367,0 0,-0.0736 0.316487,0 0.237367,0 -0.158247,0 -0.316494,0 -0.474734,0 -0.07912,0 0.237367,-0.0736 0.237367,0 0,0.07361 -0.166598,-0.03295 -0.237367,0 -0.100083,0.04652 -0.237367,0.116722 -0.237367,0.220813 0,0.10409 0.237367,0.116722 0.237367,0.220813 0,0.10409 -0.187328,0.127709 -0.237367,0.220812 -0.03535,0.06583 0.05597,0.168765 0,0.220813 -0.05597,0.05207 -0.237367,-0.0736 -0.237367,0 0,0.104091 0.272752,0.122063 0.237367,0.220813 -0.07077,0.197501 -0.403965,0.244126 -0.474734,0.441626 -0.03535,0.09875 0.237367,0.116722 0.237367,0.220813 0,0.208182 -0.474733,0.233438 -0.474733,0.441626 0,0.294415 0.553853,-0.368024 0.237366,0.220813 -0.05001,0.0931 -0.187321,0.127709 -0.237366,0.220813 -0.03542,0.06583 0.07913,0.220813 0,0.220813 -0.07912,0 0.05597,-0.168771 0,-0.220813 C 9.9341496,56.665831 10.01327,57.32827 10.01327,56.73944"
       id="path3875"
       inkscape:connector-curvature="0" />
    <path
       style="fill:#ffff00;stroke:#000000;stroke-width:0.17482623px;stroke-linecap:butt;stroke-linejoin:miter;stroke-opacity:1"
       d="m 22.118962,43.269871 c -0.220179,0.0585 -1.898929,1.052456 -1.898929,0 0,-0.164583 0.15824,-0.294414 0.237367,-0.441626 0.210991,-0.392552 0.376959,-0.649297 0.474727,-1.104057 0.03103,-0.144355 0,-0.294422 0,-0.441625 0.07913,-0.147212 0.19446,-0.281956 0.237367,-0.441627 0.103036,-0.383388 -0.103029,-0.941495 0,-1.324877 0.04289,-0.15967 0.19446,-0.281956 0.237367,-0.441626 0.03836,-0.142814 0,-0.294415 0,-0.441625 0,-0.294416 0,-0.588831 0,-0.883252 0,-0.0736 -0.07912,-0.220806 0,-0.220806 0.07913,0 0.07913,0.220806 0,0.220806 -0.07912,0 0,-0.147205 0,-0.220806 0,-0.07361 0.05597,-0.168771 0,-0.220814 -0.05597,-0.05207 -0.181416,0.05207 -0.237367,0 -0.111894,-0.104096 0.111901,-0.337535 0,-0.441626 -0.05597,-0.05207 -0.181416,0.05207 -0.237367,0 -0.05597,-0.05207 0,-0.14721 0,-0.220813 0,-0.07361 -0.07912,-0.220812 0,-0.220812 0.07913,0 0,0.294415 0,0.220812 0,-0.14721 0,-0.29442 0,-0.441625 0,-0.809649 0,-1.619292 0,-2.428935 0,-0.14721 0,-0.294422 0,-0.441626 0,-0.07361 -0.07912,-0.220813 0,-0.220813 0.07913,0 -0.04391,0.159569 0,0.220813 0.124137,0.173218 0.350597,0.268401 0.474734,0.441626 0.04391,0.06124 -0.03535,0.154973 0,0.220806 0.05001,0.0931 0.158247,0.147212 0.237367,0.220812 0.07913,0.294423 0.11621,0.601481 0.237367,0.883253 0.361825,0.841475 0.188349,-0.669635 0.474734,0.662438 0.04652,0.216524 -0.05755,0.448216 0,0.662439 0.02713,0.100982 0.237366,0.116715 0.237366,0.220812 0,0.104091 -0.237366,0.116716 -0.237366,0.220813 0,0.104091 0.187328,0.12771 0.237366,0.220813 0.03535,0.06583 -0.03542,0.15498 0,0.220813 0.05001,0.0931 0.187329,0.127709 0.237367,0.220814 0.03535,0.06583 -0.03535,0.154979 0,0.220806 0.05001,0.0931 0.237367,0.116722 0.237367,0.220813 0,0.104098 -0.272751,0.122062 -0.237367,0.220813 0.07077,0.1975 0.374651,0.255424 0.474734,0.441626 0.07077,0.131667 -0.07077,0.309958 0,0.441625 0.03535,0.06583 0.181417,-0.05207 0.237367,0 0.05597,0.05207 -0.02501,0.150989 0,0.220813 0.05597,0.156139 0.181416,0.285487 0.237367,0.441626 0.02501,0.06983 -0.03535,0.15498 0,0.220813 0.05001,0.0931 0.237367,0.116721 0.237367,0.220812 0,0.0736 -0.181423,-0.05207 -0.237367,0 -0.05597,0.05207 0,0.147212 0,0.220813 0,0.736041 0,-0.515228 0,0.220813 0,0.0736 0,0.147212 0,0.220813 0,0.0736 0.07912,0.220814 0,0.220814 -0.07912,0 -0.07912,-0.220814 0,-0.220814 0.07912,0 0.05597,0.168765 0,0.220814 -0.125103,0.116376 -0.297812,0.220813 -0.474734,0.220813 -0.111894,0 0.316487,-0.147212 0.237367,-0.220813 -0.111894,-0.104092 -0.316487,0 -0.474734,0 -0.07912,0 0.26675,-0.06835 0.237367,0 -0.328537,0.764055 -0.791221,1.47208 -1.186834,2.208121"
       id="path3877"
       inkscape:connector-curvature="0" />
    <ellipse
       style="fill:#ffff00;stroke-width:0.17482623"
       id="path3879"
       cx="-58.395527"
       cy="14.167176"
       rx="2.5393419"
       ry="1.3055155"
       transform="rotate(-90)" />
    <ellipse
       style="fill:#ffff00;stroke-width:0.17482623"
       id="path3881"
       cx="-56.739437"
       cy="10.013266"
       rx="0.44162583"
       ry="2.7297144"
       transform="rotate(-90)" />
    <ellipse
       style="fill:#ffff00;stroke-width:0.17482623"
       id="path3883"
       cx="-56.29781"
       cy="12.742985"
       rx="0.44162583"
       ry="2.7297144"
       transform="rotate(-90)" />
    <ellipse
       style="fill:#ffff00;stroke-width:0.17482623"
       id="path3885"
       cx="-58.505943"
       cy="11.793524"
       rx="1.7665001"
       ry="1.7802489"
       transform="rotate(-90)" />
    <ellipse
       style="fill:#ffff00;stroke-width:0.17482623"
       id="path3887"
       cx="-56.29781"
       cy="12.742985"
       rx="0.44162583"
       ry="2.7297144"
       transform="rotate(-90)" />
    <ellipse
       style="fill:#ffff00;stroke-width:0.17482623"
       id="path3889"
       cx="-60.824467"
       cy="11.556146"
       rx="0.11040326"
       ry="1.3055155"
       transform="rotate(-90)" />
    <ellipse
       style="fill:#ffff00;stroke-width:0.17482623"
       id="path3891"
       cx="-56.29781"
       cy="12.742985"
       rx="0.44162583"
       ry="2.7297144"
       transform="rotate(-90)" />
    <g
       id="g42"
       transform="rotate(1.0991681,21.406861,0.65305288)"
       inkscape:export-xdpi="96"
       inkscape:export-ydpi="96">
      <path
         inkscape:connector-curvature="0"
         id="path3871"
         d="m 21.406861,0.65305288 c 0,-0.0736022 0.07913,-0.2208129 0,-0.2208129 -0.111894,0 -0.131207,0.18789618 -0.237367,0.2208129 -0.150122,0.0465232 -0.333189,-0.0658334 -0.474734,0 -0.07076,0.0328849 0.07913,0.22081291 0,0.22081291 -0.111894,0 -0.15824,-0.14721073 -0.23736,-0.22081291 -0.237367,0 -0.479344,-0.0432729 -0.712101,0 -0.17349,0.0322476 -0.303093,0.18089222 -0.474733,0.22081291 -0.15352,0.035689 -0.316487,0 -0.474734,0 -0.173819,0 -1.188424,-0.0438465 -1.424202,0 -0.245348,0.0456309 -0.461888,0.22081291 -0.712094,0.22081291 -0.176929,0 -0.297811,-0.22081291 -0.474734,-0.22081291 -0.326228,0 -0.635789,0.13744091 -0.949467,0.22081291 -0.24058,0.063941 -0.461896,0.2208129 -0.712101,0.2208129 -0.111894,0 -0.125473,-0.2208129 -0.237367,-0.2208129 -0.176922,0 -0.301244,0.1885335 -0.474734,0.2208129 -0.232756,0.043273 -0.474733,0 -0.7121,0 -0.237367,0 -0.474734,0 -0.712101,0 -1.740682,0 -3.4813701,0 -5.2220585,0 -0.4747338,0 -0.9494677,0 -1.4242015,0 -0.07912,0 -0.2373669,0.073602 -0.2373669,0 0,-0.073602 0.3164869,0 0.2373669,0 -0.1582469,0 -0.3164869,0 -0.4747338,0 -0.07912,0 0.2373669,-0.073602 0.2373669,0 0,0.073602 -0.1632822,-0.025875 -0.2373669,0 C 4.7017259,1.5123164 4.1582305,1.7571174 3.6043766,1.9779303"
         style="fill:none;stroke:#000000;stroke-width:0.17482623px;stroke-linecap:butt;stroke-linejoin:miter;stroke-opacity:1" />
      <path
         inkscape:connector-curvature="0"
         id="path3893"
         d="m 22.895638,2.1611359 c -0.25881,0 -0.369519,0.1646091 -0.334141,0.4968291 0.02912,0.2732566 -0.08068,0.7949277 -0.243951,1.1592677 -0.163268,0.36434 -0.315795,0.7649745 -0.338944,0.8903002 -0.02316,0.1253257 -0.303443,0.5692968 -0.622869,0.9866031 -0.319426,0.4173063 -0.603611,0.9035242 -0.631528,1.0804779 -0.02788,0.1769537 -0.219939,0.4098053 -0.42671,0.5174522 -0.206771,0.1076405 -0.324714,0.2728232 -0.262098,0.367074 0.06262,0.094245 -0.304567,0.5514332 -0.815959,1.0159637 -0.511393,0.4645369 -0.87452,0.927831 -0.806943,1.0295446 0.06755,0.1017073 0.0097,0.1849264 -0.128515,0.1849264 -0.138256,0 -0.251377,0.1384162 -0.251377,0.3075942 0,0.169179 -0.166988,0.367208 -0.371094,0.440065 -0.2041,0.07286 -0.313439,0.219258 -0.242964,0.32533 0.07047,0.10608 -0.0767,0.365309 -0.327044,0.576065 -0.436877,0.367795 -0.485593,0.350982 -1.211498,-0.418122 C 14.669732,9.8382209 14.23474,9.2846336 14.23474,9.0266978 c 0,-0.1326484 -0.175148,-0.2411875 -0.389222,-0.2411875 -0.214075,0 -0.507817,-0.1331009 -0.652759,-0.2957789 C 12.692197,7.9279229 6.1642782,3.3363872 6.1642782,3.5461238 6.1642782,3.595706 5.7506605,3.2795525 5.2451323,2.8435159 4.6640327,2.3423086 4.4062367,1.9695179 4.5441846,1.8299166 4.6683282,1.7042849 7.0340435,1.5472597 10.032637,1.4656212 c 2.89864,-0.078911 5.857738,-0.1986858 6.575772,-0.2661571 3.714928,-0.34908932 4.602135,-0.3322199 5.254517,0.099923 0.34883,0.2310671 0.744971,0.4201232 0.880302,0.4201232 0.135331,0 0.312068,0.099368 0.392757,0.2208129 0.08068,0.1214509 -0.02747,0.2208129 -0.240347,0.2208127 z"
         style="fill:#0000ff;stroke-width:0.22893997" />
    </g>
    <path
       style="fill:#0000ff;stroke-width:0.22893997"
       d="m 24.808844,37.822362 c -0.630693,2.287657 -0.678751,2.309535 -1.378233,0.627494 -0.345541,-0.830909 -0.696981,-1.808845 -0.780972,-2.173184 -0.231331,-1.003396 -1.555168,-3.434913 -1.795049,-3.297001 -0.309595,0.177992 -0.257385,3.733458 0.06447,4.390593 0.342821,0.699938 -0.11571,4.608701 -0.625555,5.332556 -0.183334,0.260283 -0.279239,0.66565 -0.213135,0.900815 0.08683,0.30886 -0.05748,0.50288 -0.51973,0.698809 -0.351954,0.149179 -0.696399,0.218693 -0.765435,0.154477 -0.06903,-0.06422 -0.253754,-0.01775 -0.4105,0.103272 -0.156754,0.121016 -1.288138,0.226332 -2.514193,0.234037 -1.813937,0.0114 -2.428168,-0.07455 -3.297344,-0.461364 -1.954365,-0.869775 -2.373662,-1.122197 -2.373662,-1.428984 0,-0.167361 -0.2189245,-0.368927 -0.4864898,-0.447929 -0.3010863,-0.0889 -0.7534042,-0.685758 -1.1868345,-1.566097 -0.3851869,-0.782353 -0.7003448,-1.45645 -0.7003448,-1.497994 0,-0.04155 0.4105554,-0.328278 0.91235,-0.637188 0.8882145,-0.5468 0.920982,-0.550498 1.2392296,-0.139748 0.1797925,0.232048 0.5038635,0.421905 0.7201575,0.421905 0.2163,0 0.519312,0.141278 0.673359,0.313951 0.207518,0.232603 0.630213,0.283184 1.631288,0.195208 1.148956,-0.100971 1.466663,-0.232427 2.122642,-0.878271 0.443069,-0.436228 0.771435,-0.992396 0.771435,-1.306612 0,-0.713475 -1.136275,-2.795653 -1.432648,-2.625263 -0.125904,0.07238 -0.228913,0.02638 -0.228913,-0.102231 0,-0.12862 -0.308897,-0.233846 -0.686431,-0.233846 -1.017065,0 -3.166027,1.74353 -3.019968,2.450204 0.05337,0.258292 -0.6305006,0.861985 -0.976494,0.861985 -0.1936929,0 -0.764482,0.303782 -1.2684208,0.675073 L 7.3671711,39.062102 6.6806444,37.721235 C 6.2841811,36.946904 6.0395044,36.159485 6.1015453,35.857574 6.1605993,35.570041 6.0920912,35.26759 5.9492518,35.185462 5.6008401,34.98515 5.6128633,31.854256 5.9643921,31.243229 6.115569,30.980464 6.3559023,30.642667 6.4984677,30.492562 7.1223368,29.835752 7.311152,29.56758 8.102866,28.213858 c 0.4606623,-0.787669 1.0309581,-2.053162 1.2673179,-2.812204 0.2363599,-0.75904 0.5196546,-1.380079 0.6295348,-1.380079 0.1098873,0 0.2000093,-0.173888 0.2002903,-0.386416 0.0014,-0.864177 2.56541,-4.997842 4.018405,-6.477725 0.376774,-0.383745 1.07257,-1.427145 1.546215,-2.318663 0.473644,-0.891523 0.955708,-1.675305 1.071254,-1.741731 0.272806,-0.156847 4.282483,4.231708 4.282483,4.687138 0,0.190885 0.25048,0.753261 0.556615,1.24972 0.306142,0.496453 0.801093,1.498842 1.099898,2.227522 0.298805,0.72868 0.650005,1.541746 0.780437,1.806806 0.13044,0.265068 0.173436,0.636424 0.09554,0.825245 -0.07789,0.188812 0.112566,1.064964 0.423222,1.947 0.310664,0.882041 0.680642,2.205879 0.82218,2.941869 0.349282,1.816314 0.292763,7.660993 -0.08742,9.040022 z"
       id="path3895"
       inkscape:connector-curvature="0" />
    <path
       style="fill:#000000;stroke-width:0.22893997"
       d="m 14.950793,38.263987 c -0.395018,0.559557 -0.66187,0.681329 -1.718265,0.784083 -0.853125,0.08298 -1.477289,0.0183 -1.963792,-0.203516 -1.023059,-0.466445 -1.442521,-1.132598 -0.713177,-1.132598 0.223042,0 0.356051,-0.209527 0.356051,-0.560879 0,-0.654702 1.726569,-2.309684 2.409588,-2.309684 0.842382,0 2.102527,1.418626 2.098814,2.362766 -6.85e-4,0.218563 -0.212012,0.695488 -0.469219,1.059828 z"
       id="path3897"
       inkscape:connector-curvature="0" />
    <path
       style="fill:#483e37;stroke-width:0.22893997"
       d="m 23.53649,40.361706 c -0.06358,0.18217 -0.180854,0.380901 -0.260563,0.441624 -0.07971,0.06072 -0.400115,0.627536 -0.712005,1.259582 -0.407295,0.825383 -0.756241,1.210518 -1.238435,1.36689 -0.852494,0.276456 -1.043968,0.005 -0.582257,-0.825631 0.574344,-1.033202 0.973918,-4.534753 0.629164,-5.513536 -0.157685,-0.44768 -0.252644,-1.36047 -0.211018,-2.028428 l 0.07567,-1.214471 0.394428,0.993657 c 0.216931,0.546507 0.626069,1.713124 0.909192,2.592482 0.283124,0.879349 0.600111,1.647883 0.704414,1.707853 0.267579,0.15384 0.428471,0.827404 0.291406,1.219978 z"
       id="path3907"
       inkscape:connector-curvature="0" />
  </g>
</svg>
