<?xml version="1.0" encoding="UTF-8" standalone="no"?>
<!-- Created with Inkscape (http://www.inkscape.org/) -->

<svg
   xmlns:dc="http://purl.org/dc/elements/1.1/"
   xmlns:cc="http://creativecommons.org/ns#"
   xmlns:rdf="http://www.w3.org/1999/02/22-rdf-syntax-ns#"
   xmlns:svg="http://www.w3.org/2000/svg"
   xmlns="http://www.w3.org/2000/svg"
   xmlns:sodipodi="http://sodipodi.sourceforge.net/DTD/sodipodi-0.dtd"
   xmlns:inkscape="http://www.inkscape.org/namespaces/inkscape"
   width="210mm"
   height="297mm"
   viewBox="0 0 210 297"
   version="1.1"
   id="svg4056"
   inkscape:version="0.92.4 (f8dce91, 2019-08-02)"
   sodipodi:docname="darkgrey.svg">
  <defs
     id="defs4050" />
  <sodipodi:namedview
     id="base"
     pagecolor="#ffffff"
     bordercolor="#666666"
     borderopacity="1.0"
     inkscape:pageopacity="0.0"
     inkscape:pageshadow="2"
     inkscape:zoom="1.4"
     inkscape:cx="419.68605"
     inkscape:cy="801.34348"
     inkscape:document-units="mm"
     inkscape:current-layer="layer1"
     showgrid="false"
     inkscape:window-width="1683"
     inkscape:window-height="1080"
     inkscape:window-x="1691"
     inkscape:window-y="129"
     inkscape:window-maximized="0" />
  <metadata
     id="metadata4053">
    <rdf:RDF>
      <cc:Work
         rdf:about="">
        <dc:format>image/svg+xml</dc:format>
        <dc:type
           rdf:resource="http://purl.org/dc/dcmitype/StillImage" />
        <dc:title />
      </cc:Work>
    </rdf:RDF>
  </metadata>
  <g
     inkscape:label="Layer 1"
     inkscape:groupmode="layer"
     id="layer1">
    <path
       style="fill:none;stroke:#000000;stroke-width:0.26458332px;stroke-linecap:butt;stroke-linejoin:miter;stroke-opacity:1"
       d="m 114.3456,52.953863 c -0.0617,0.457846 9e-5,0.950245 -0.18499,1.373519 -0.16681,0.381548 -0.69007,0.543867 -0.8255,0.937644 -0.084,0.24422 0.22225,0.476347 0.2509,0.733008 0.0256,0.229559 -0.0617,0.457836 -0.0925,0.686759 -0.0925,0.686759 -0.18499,1.373519 -0.27748,2.060268 -0.0154,0.114466 -0.0308,0.228923 -0.0463,0.343379 -0.0154,0.114467 -0.0837,0.234104 -0.0463,0.34338 0.0528,0.154527 0.24423,0.235092 0.29713,0.389626 0.0748,0.218541 -0.16729,0.468221 -0.0925,0.686759 0.0529,0.154527 0.24425,0.235095 0.29714,0.389628 0.0374,0.109264 -0.0837,0.234104 -0.0462,0.34338 0.0528,0.154527 0.31892,0.227757 0.29712,0.389626 -0.0218,0.161868 -0.36782,0.135265 -0.38962,0.297133 -0.0436,0.323737 0.63787,0.455508 0.59426,0.779254 -0.0345,0.25594 -0.48412,0.386802 -0.43588,0.640511 0.0483,0.253703 0.55688,0.191535 0.64051,0.435874 0.0529,0.154527 -0.42013,0.136675 -0.38962,0.297134 0.061,0.320914 0.45096,0.485689 0.59426,0.779253 0.0507,0.103796 -0.0836,0.234106 -0.0463,0.343379 0.0529,0.154517 0.24424,0.235094 0.29713,0.389616 0.0374,0.109277 -0.0836,0.234117 -0.0463,0.34338 0.0528,0.154527 0.24424,0.235095 0.29714,0.389628 0.0374,0.109277 -0.0836,0.234117 -0.0463,0.34338 0.15052,0.439807 0.74086,0.729072 0.8914,1.168885 0.0373,0.109263 -0.11632,0.251535 -0.0463,0.34338 0.1566,0.20535 0.44668,0.265224 0.64051,0.435874 0.12259,0.107929 0.1621,0.297731 0.29714,0.389627 0.0955,0.06493 0.24789,-0.01868 0.34337,0.04625 0.13504,0.09185 0.15047,0.317757 0.29714,0.389627 0.20742,0.101596 0.47933,-0.0091 0.68676,0.09249 0.14667,0.07182 0.1621,0.297731 0.29713,0.389627 0.0867,0.059 1.91236,0.257563 2.06027,0.277483 0.5723,0.07708 1.14459,0.154158 1.71689,0.231238 0.22893,0.03083 0.4572,0.118082 0.68676,0.09249 0.59363,0.290666 0.71355,-0.470246 1.12264,-0.548017 0.22691,-0.0431 0.50308,0.232561 0.68676,0.09249 0.12987,-0.09905 -0.42702,-0.290588 -0.29714,-0.389627 0.38963,-0.297133 0.66364,0.264184 1.03014,0.138742 1.5253,-0.522059 -0.18661,-0.165802 0.0463,-0.34338 0.002,-0.0017 1.08721,-0.285066 1.12262,-0.548022 0.0218,-0.161868 -0.427,-0.290586 -0.29713,-0.389627 0.18368,-0.140066 0.50309,0.232563 0.68676,0.09249 0.12988,-0.09904 -0.31893,-0.227758 -0.29713,-0.389627 0.0436,-0.323737 0.63551,-0.300926 0.77925,-0.594264 0.15247,-0.311134 -0.0137,-0.718994 0.13875,-1.030129 0.11367,-0.231903 0.4014,-0.384573 0.43587,-0.640512 0.0345,-0.255939 -0.28536,-0.477068 -0.25089,-0.733007 0.0218,-0.161868 0.31776,-0.150463 0.38963,-0.297132 0.0693,-0.141455 0.30565,-2.26939 0.32373,-2.403657 0.10791,-0.801216 0.21582,-1.602432 0.32374,-2.403648 0.0208,-0.154643 0.17689,-0.918608 0.13874,-1.030138 -0.0528,-0.154527 -0.26663,-0.22917 -0.29713,-0.389628 -0.04,-0.210319 0.24271,-1.255185 0.18499,-1.373518 -0.11329,-0.232078 -0.59228,-0.182166 -0.64052,-0.435875 -0.0483,-0.253712 0.32225,-0.408603 0.43588,-0.640511 0.087,-0.17749 0.16923,-1.256535 0.18499,-1.373519 0.0154,-0.114456 0.11631,-0.251535 0.0462,-0.34337 -0.1566,-0.20535 -0.55687,-0.191544 -0.64051,-0.435874 -0.0528,-0.154527 0.42014,-0.136673 0.38963,-0.297132 -0.061,-0.320914 -0.48848,-0.470189 -0.59426,-0.779253 -0.0748,-0.21854 0.11809,-0.4572 0.0925,-0.686759 -0.0286,-0.256654 -0.16726,-0.488669 -0.25088,-0.733007 -0.16727,-0.488668 -0.37568,-0.965141 -0.50177,-1.466013 -0.0892,-0.354171 -0.0864,-0.730839 -0.20464,-1.076387 -0.0529,-0.154516 -0.24425,-0.235095 -0.29713,-0.389627 -0.11827,-0.345538 -0.0444,-0.748174 -0.20464,-1.076376 -0.21495,-0.440341 -0.65235,-0.741157 -0.8914,-1.168881 -0.0563,-0.100824 0.0535,-0.228127 0.0463,-0.34338 -0.0302,-0.475229 0.0206,-0.97848 -0.15839,-1.419766 -0.18415,-0.454083 -0.67645,-0.72855 -0.8914,-1.168881 -0.16021,-0.328202 -0.0864,-0.73083 -0.20464,-1.076388 -0.13484,-0.393973 -0.41317,-0.728649 -0.54801,-1.122622 -0.11828,-0.34554 -0.0444,-0.748176 -0.20464,-1.076387 -0.21496,-0.440332 -0.73273,-0.705284 -0.8914,-1.168881 -0.1122,-0.327809 0.30777,-0.727672 0.13875,-1.030139 -0.17817,-0.318805 -0.76243,-0.191682 -0.9839,-0.482112 -0.22146,-0.29042 -0.0602,-0.740928 -0.20463,-1.076386 -0.12918,-0.300047 -0.39618,-0.519499 -0.59427,-0.779264 -0.29713,-0.389627 -0.63076,-0.753949 -0.89139,-1.168872 -0.2215,-0.35262 -0.2955,-0.791514 -0.54802,-1.122624 -0.35017,-0.459189 -0.88459,-0.755958 -1.23477,-1.215127 -0.15661,-0.205352 -0.0943,-0.527666 -0.25088,-0.733017 -0.25253,-0.331119 -0.68513,-0.494383 -0.93765,-0.825501 -0.25251,-0.331118 -0.32652,-0.770014 -0.54801,-1.122634 -0.26064,-0.414922 -0.65235,-0.741146 -0.8914,-1.168861 -0.0564,-0.100824 0.11632,-0.251556 0.0462,-0.34339 -0.15661,-0.20534 -0.44668,-0.265225 -0.64052,-0.435874 -0.12259,-0.107929 -0.24423,-0.235094 -0.29713,-0.389628 -0.0374,-0.109263 0.16071,-0.327964 0.0463,-0.343379 -0.16187,-0.0218 -0.41143,0.459 -0.38963,0.297132 0.28678,-2.129255 0.56609,-0.273366 0.38963,-0.297132 -0.11446,-0.01542 0.11632,-0.251545 0.0463,-0.34338 -0.0701,-0.09187 -0.3588,0.06821 -0.34338,-0.04625 0.0154,-0.114457 0.23959,0.09695 0.34338,0.04625 0.29355,-0.143299 0.47921,-0.465077 0.77925,-0.594264 2.40663,-1.036109 -0.25386,0.626844 2.15277,-0.409275 0.30004,-0.129177 0.47653,-0.471493 0.77926,-0.594264 0.57635,-0.233731 1.20626,-0.303678 1.80938,-0.455513 0.60313,-0.151844 1.20627,-0.303687 1.80939,-0.455532 0.3588,-0.0682 0.72036,-0.12319 1.07639,-0.204637 1.45358,-0.332515 1.81726,-0.569744 3.22915,-0.613903 0.84261,-0.02634 1.06182,0.422692 2.06028,0.277484 0.41207,-0.05993 0.71354,-0.470235 1.12263,-0.548016 0.68077,-0.129431 1.37159,0.354317 2.06028,0.277484 0.16232,-0.0181 0.22775,-0.318934 0.38961,-0.297133 0.25596,0.03447 0.40861,0.322233 0.64052,0.435874 0.22337,0.109395 2.25466,0.303666 2.74703,0.36998 0.11446,0.01541 -0.32796,-0.160714 -0.34338,-0.04625 -0.0218,0.161868 0.24425,0.235095 0.29714,0.389627 0.0374,0.109263 -0.0308,0.228913 -0.0463,0.343379 -0.0308,0.228923 -0.0617,0.457837 -0.0925,0.68676 -0.0154,0.114456 0.11632,-0.251536 0.0463,-0.34338 -0.0701,-0.09187 -0.27839,-0.141718 -0.34338,-0.04625 -0.12995,0.190964 -0.0617,0.457837 -0.0925,0.68675 -0.0308,0.228933 -0.0617,0.457846 -0.0925,0.686769 -0.0154,0.114457 0.0617,-0.457836 0.0462,-0.34339 -0.0308,0.228923 -0.0617,0.457847 -0.0925,0.68677 -0.0154,0.114456 0.13812,-0.413414 0.0463,-0.34338 -0.20535,0.156602 -0.23052,0.4839 -0.43587,0.640512 -0.0919,0.07006 -0.25154,-0.116316 -0.34338,-0.04625 -2.11737,1.614707 0.41288,-0.09558 -0.13874,1.030129 -1.32466,2.703288 -0.29515,-0.08304 -1.12264,0.548017 -0.20535,0.156602 -0.26522,0.446685 -0.43587,0.640512 -1.16092,1.318623 0.84053,-1.785979 -1.21513,1.234776 -0.065,0.09548 0.0188,0.247895 -0.0463,0.343389 -0.0918,0.135019 -0.25974,0.198073 -0.38961,0.297114 -0.12989,0.09905 -0.24285,0.225483 -0.38963,0.297132 -0.23208,0.113297 -0.52766,0.09428 -0.73301,0.250885 -0.18368,0.140066 0.12605,0.61197 -0.0925,0.686759 -0.21854,0.07481 -0.45785,-0.06166 -0.68676,-0.09249 -0.1453,0.213507 -0.23053,0.483911 -0.43588,0.640512 -0.0919,0.07006 -0.2784,-0.141729 -0.34338,-0.04625 -0.12995,0.190963 0.0912,0.546691 -0.0925,0.686759 -1.11508,0.85037 -0.31468,-0.914687 -1.07639,0.204647 -0.12995,0.190963 0.0912,0.546692 -0.0925,0.686759 -0.002,0.0017 -1.08722,0.285061 -1.12264,0.548007 -0.0218,0.161869 0.42701,0.290576 0.29714,0.389627 -0.18367,0.140068 -0.50309,-0.232572 -0.68676,-0.09249 -0.29041,0.221469 -0.24079,0.709762 -0.48212,0.983882 -0.0764,0.08668 -0.27841,-0.141709 -0.34337,-0.04625 -0.12997,0.190971 -0.0617,0.457846 -0.0925,0.686759 -0.0154,0.114466 0.0301,0.256705 -0.0463,0.343389 -0.43172,0.490362 -1.12679,0.698166 -1.5585,1.188519 -0.0764,0.08668 -0.004,0.23608 -0.0463,0.34338 -0.0688,0.172776 -0.64928,1.419487 -0.918,1.624403 -0.002,0.0017 -1.08722,0.285061 -1.12263,0.548017 -0.0345,0.255949 0.36452,0.5011 0.25088,0.733016 -0.11367,0.231883 -0.52765,0.09426 -0.733,0.250865 -0.0919,0.07006 0.40835,-0.04923 0.34338,0.04625 -0.18379,0.270065 -0.5195,0.396183 -0.77926,0.594264 -0.12987,0.09906 0.5195,-0.396173 0.38963,-0.297132 -0.25976,0.198091 -0.63551,0.300925 -0.77925,0.594264 -0.0719,0.146663 0.19809,0.259755 0.29713,0.389627 -0.24433,0.08363 -0.58771,0.03738 -0.73301,0.250885 -0.0918,0.135039 0.38903,0.254595 0.29713,0.389627 -0.14529,0.213508 -0.47706,0.285355 -0.733,0.250885 -0.0474,-0.0064 1.28924,-1.068263 0.29713,0.389627 -0.2605,0.382785 -0.59769,-0.753864 -0.73301,0.250884 -0.0154,0.114457 0.30598,-0.06302 0.34338,0.04625 0.0748,0.21854 -0.0617,0.457836 -0.0925,0.686759 -0.0154,0.114457 0.13811,-0.413413 0.0462,-0.343379 -0.20535,0.156601 -0.26522,0.446675 -0.43587,0.640511 -0.10793,0.122591 -0.36783,0.135254 -0.38963,0.297132 -0.0218,0.161869 0.36901,0.242958 0.29713,0.389628 -0.14374,0.293338 -0.65843,0.290755 -0.77925,0.594264 -0.0955,0.239942 0.39618,0.5195 0.25089,0.732997 -0.12996,0.190973 -0.5568,-0.283457 -0.68676,-0.09249 -0.14529,0.213507 0.3464,0.493069 0.25088,0.733006 -0.12079,0.303503 -0.5195,0.396184 -0.77924,0.594266 -0.12989,0.09905 0.41142,-0.459002 0.38962,-0.297133 -0.0345,0.255939 -0.26522,0.446676 -0.43587,0.640513 -0.10793,0.122591 -0.36783,0.135263 -0.38963,0.297132 -0.0218,0.161868 0.31894,0.227758 0.29714,0.389627 -0.0154,0.114457 -0.25155,-0.116317 -0.34338,-0.04625 -0.18368,0.140067 0.13641,0.71759 -0.0925,0.68676 -0.11447,-0.01542 0.0617,-0.457836 0.0463,-0.34338 -0.0308,0.228923 -0.0617,0.457836 -0.0925,0.686759 -0.0154,0.114457 0.0617,-0.457836 0.0463,-0.343379 -0.30318,2.251045 0.16444,-1.220907 -0.13874,1.030139 -0.0154,0.114456 0.0617,-0.457837 0.0463,-0.34338 -0.0308,0.228923 -0.0617,0.457836 -0.0925,0.686759 -0.0154,0.114457 0.12726,-0.425703 0.0462,-0.343379 -0.47236,0.479996 -1.17149,0.910741 -1.26138,1.578145 -0.0771,0.572303 0.80353,-1.63981 1.21513,-1.234766 0.41159,0.405043 -0.81008,0.823178 -1.21513,1.234766 z"
       id="path3911"
       inkscape:connector-curvature="0"
       inkscape:export-xdpi="96"
       inkscape:export-ydpi="96" />
    <path
       style="fill:#483e37;stroke-width:0.34647945"
       d="m 126.75274,67.500853 c -0.39509,0.61979 -0.71036,1.243187 -0.7006,1.385332 0.01,0.142138 -0.37412,0.302532 -0.85308,0.356414 -0.47894,0.05388 -1.07978,0.290374 -1.33516,0.525538 -0.63701,0.586572 -4.81105,-0.0011 -6.39827,-0.900891 -1.55344,-0.880602 -2.31737,-2.415958 -3.244,-6.519805 -0.9499,-4.206884 -0.47623,-8.790021 1.00411,-9.715741 0.29212,-0.182674 0.59959,-0.81494 0.6833,-1.405048 0.0835,-0.590133 0.54435,-1.69858 1.02368,-2.463263 0.47932,-0.764694 0.86407,-1.499493 0.85501,-1.632887 -0.0339,-0.49871 2.42672,-4.639229 3.14991,-5.300375 0.30926,-0.28273 0.49107,-0.673671 0.40402,-0.868755 -0.0871,-0.195095 0.24526,-0.547736 0.73845,-0.783656 1.0428,-0.498803 1.14963,-0.379606 1.96824,2.195856 0.29812,0.937946 0.74105,1.921467 0.98428,2.185617 0.24323,0.264149 0.39531,0.828731 0.33795,1.254625 -0.0574,0.425895 0.10509,1.001772 0.36103,1.279712 0.46614,0.506218 1.95292,4.901542 1.86894,5.525072 -0.0246,0.182323 0.15516,0.749235 0.39939,1.259792 0.29475,0.616216 0.32674,1.314636 0.0951,2.077468 -0.22152,0.729672 -0.20854,1.217964 0.0356,1.337594 0.6541,0.320526 -0.49323,8.819504 -1.3778,10.207423 z"
       id="path3915"
       inkscape:connector-curvature="0"
       inkscape:export-xdpi="96"
       inkscape:export-ydpi="96" />
    <path
       style="fill:#483e37;stroke-width:0.34647945"
       d="m 134.88007,25.244099 c -0.14883,0.460678 -0.63991,1.141815 -1.09122,1.513672 -0.58239,0.479847 -0.68135,0.694842 -0.34094,0.74069 0.28795,0.03878 0.14387,0.238194 -0.36055,0.49897 -0.4621,0.238887 -1.23216,1.000455 -1.71125,1.692368 -0.47909,0.691903 -0.98397,1.243913 -1.12196,1.2267 -0.79334,-0.09878 -5.93544,4.602493 -6.06828,5.548255 -0.0929,0.659547 -1.40339,1.281264 -1.87867,0.891043 -0.16955,-0.139217 -0.28191,-0.448957 -0.24967,-0.688316 0.0322,-0.239369 -1.10573,-2.011025 -2.52882,-3.93703 -4.23082,-5.72603 -4.32321,-5.883006 -3.76451,-6.397486 0.26939,-0.248062 0.83827,-0.404085 1.26416,-0.346724 0.4259,0.05736 0.99207,-0.09617 1.25815,-0.341178 0.80246,-0.738912 7.88947,-2.272474 9.49959,-2.055619 0.80312,0.108167 1.62611,0.0746 1.82888,-0.07461 0.59022,-0.434314 5.774,0.156745 5.61718,0.640471 -0.0448,0.138171 -0.20325,0.628142 -0.35209,1.088796 z"
       id="path3917"
       inkscape:connector-curvature="0"
       inkscape:export-xdpi="96"
       inkscape:export-ydpi="96" />
    <path
       style="fill:#666666;stroke-width:0.34647945"
       d="m 126.51034,67.723723 c -0.58729,1.101858 -2.35006,1.94664 -4.32391,2.072185 -1.70081,0.108178 -4.81252,-0.995721 -5.63462,-1.998914 -1.65912,-2.024594 -2.85773,-7.361124 -2.54681,-11.339149 0.18834,-2.409674 0.30416,-2.782792 1.05533,-3.398266 0.71754,-0.587955 0.77451,-0.749466 0.3808,-1.079582 -0.25463,-0.213508 -0.28796,-0.36703 -0.0741,-0.341167 0.2139,0.02578 1.08978,-1.431418 1.9464,-3.238408 0.85662,-1.806988 2.12802,-4.113594 2.82534,-5.125795 0.69732,-1.01219 1.2951,-2.027818 1.32838,-2.256925 0.0329,-0.229162 0.37446,-0.533826 0.75815,-0.677165 0.85618,-0.31984 0.93746,-0.192965 2.19242,3.422112 0.52517,1.512857 1.05976,3.000777 1.18797,3.306465 0.66819,1.593296 1.9717,5.721183 1.92235,6.087605 -0.0312,0.232015 0.11969,0.57143 0.33542,0.754251 0.42322,0.358659 0.38218,1.392059 -0.3286,8.276307 -0.30638,2.967772 -0.6527,4.838706 -1.02456,5.536446 z"
       id="path3919"
       inkscape:connector-curvature="0"
       inkscape:export-xdpi="96"
       inkscape:export-ydpi="96" />
    <path
       style="fill:#666666;stroke-width:0.34647945"
       d="m 133.95631,26.253743 c -0.457,0.443499 -0.80658,0.942887 -0.77682,1.109731 0.0782,0.438657 -1.67296,2.134921 -3.90443,3.781977 -1.06385,0.785226 -1.83709,1.555094 -1.71832,1.71083 0.11876,0.155736 -0.15406,0.408846 -0.60624,0.562485 -0.45219,0.153627 -1.44216,1.05695 -2.19993,2.007359 -1.06235,1.332423 -1.57733,1.709287 -2.24945,1.646159 -0.59678,-0.05606 -0.79622,-0.219936 -0.63238,-0.519619 0.13889,-0.254055 -1.11852,-2.332963 -2.99624,-4.95382 -1.77955,-2.483827 -3.15827,-4.676546 -3.0638,-4.872692 0.0944,-0.196141 0.64473,-0.451907 1.22282,-0.568336 0.57809,-0.11644 1.47178,-0.415085 1.98596,-0.663646 1.14483,-0.553413 7.03409,-1.78873 7.94365,-1.666227 0.36267,0.04884 0.67516,-0.02706 0.69445,-0.168676 0.0346,-0.25525 2.07692,-0.193821 5.39669,0.162271 1.49506,0.160393 1.72392,0.280214 1.72905,0.905342 0.003,0.396268 -0.368,1.083364 -0.82501,1.526862 z"
       id="path3921"
       inkscape:connector-curvature="0"
       inkscape:export-xdpi="96"
       inkscape:export-ydpi="96" />
    <path
       style="fill:none;stroke:#000000;stroke-width:0.26458332px;stroke-linecap:butt;stroke-linejoin:miter;stroke-opacity:1"
       d="m 117.35621,61.749933 c 1.37651,0.936725 0.76915,0.802807 1.6244,0.917996 0.12611,0.01698 1.35785,0.196905 1.37352,0.18499 0.0125,-0.0095 0.12753,-0.946861 0.13875,-1.030139 0.0925,-0.686759 0.18499,-1.373518 0.27748,-2.060278 0.0154,-0.114456 0.11632,-0.251535 0.0463,-0.343369 -0.0701,-0.09187 -0.27335,0.04562 -0.34338,-0.04625 -0.0701,-0.09187 0.0836,-0.234116 0.0462,-0.343379 -0.17412,-0.508724 -0.56473,-0.425669 -0.98389,-0.482122 -0.11445,-0.01542 -0.22892,-0.03083 -0.34338,-0.04625 -0.11445,-0.01542 -0.25153,-0.116315 -0.34338,-0.04625 -0.0919,0.07006 0.0456,0.273345 -0.0462,0.343379 -0.0919,0.07006 -0.25154,-0.116315 -0.34338,-0.04625 -0.0919,0.07006 0.0187,0.247891 -0.0463,0.343379 -0.0918,0.135029 -0.29773,0.1621 -0.38963,0.297123 -0.12995,0.190973 0.12605,0.61196 -0.0925,0.686759 -1.23268,0.42191 -0.79758,-1.834879 -0.57462,1.670651 z"
       id="path3923"
       inkscape:connector-curvature="0"
       inkscape:export-xdpi="96"
       inkscape:export-ydpi="96" />
    <path
       style="fill:#000000;stroke:#000000;stroke-width:0.26458332px;stroke-linecap:butt;stroke-linejoin:miter;stroke-opacity:1"
       d="m 122.81672,70.526358 c 0.69923,-1.756489 0.46482,-0.85534 0.71337,-2.700792 0.48606,-3.608855 -0.2307,0.873382 0.71336,-2.700779 0.11798,-0.44666 0.12333,-0.915683 0.18499,-1.373519 0.0617,-0.457836 0.12333,-0.915682 0.18499,-1.373518 0.0308,-0.228913 -0.009,-0.479324 0.0925,-0.68676 0.0718,-0.146676 0.29773,-0.1621 0.38962,-0.297132 0.12996,-0.190963 -0.13643,-0.717591 0.0925,-0.686759 0.11445,0.01541 -0.0617,0.457846 -0.0463,0.34338 0.0463,-0.34338 0.0925,-0.68676 0.13874,-1.030129 0.0154,-0.114467 -0.0617,0.457836 -0.0462,0.343369 0.0308,-0.228913 0.0617,-0.457836 0.0925,-0.686749 0.0154,-0.114466 -0.0308,0.228913 -0.0463,0.34338"
       id="path3925"
       inkscape:connector-curvature="0"
       inkscape:export-xdpi="96"
       inkscape:export-ydpi="96" />
    <path
       style="fill:#000000;stroke-width:0.34647945"
       d="m 120.48418,62.636097 c -0.17735,-0.910741 0.0834,-3.626323 0.32878,-3.424821 0.15152,0.124408 0.15525,1.026659 0.008,2.00502 -0.14701,0.978343 -0.29864,1.61726 -0.33709,1.419801 z"
       id="path3929"
       inkscape:connector-curvature="0"
       inkscape:export-xdpi="96"
       inkscape:export-ydpi="96" />
    <path
       style="fill:#ff0000;stroke-width:0.34647945"
       d="m 118.99168,62.260278 c -1.04685,-0.140993 -1.99071,-1.505941 -1.30016,-1.880207 0.17699,-0.09593 0.53477,-0.460369 0.79509,-0.809879 0.26032,-0.349512 0.7655,-0.596117 1.12263,-0.548019 0.53103,0.07152 0.62838,0.38717 0.53431,1.732604 -0.11344,1.622728 -0.12919,1.643239 -1.15187,1.505501 z"
       id="path3931"
       inkscape:connector-curvature="0"
       inkscape:export-xdpi="96"
       inkscape:export-ydpi="96" />
  </g>
</svg>
