<?xml version="1.0" encoding="UTF-8" standalone="no"?>
<!-- Created with Inkscape (http://www.inkscape.org/) -->

<svg
   xmlns:dc="http://purl.org/dc/elements/1.1/"
   xmlns:cc="http://creativecommons.org/ns#"
   xmlns:rdf="http://www.w3.org/1999/02/22-rdf-syntax-ns#"
   xmlns:svg="http://www.w3.org/2000/svg"
   xmlns="http://www.w3.org/2000/svg"
   xmlns:sodipodi="http://sodipodi.sourceforge.net/DTD/sodipodi-0.dtd"
   xmlns:inkscape="http://www.inkscape.org/namespaces/inkscape"
   width="210mm"
   height="297mm"
   viewBox="0 0 210 297"
   version="1.1"
   id="svg4056"
   inkscape:version="0.92.4 (f8dce91, 2019-08-02)"
   sodipodi:docname="grey.svg"
   inkscape:export-filename="/home/frank/Nextcloud/Webtechie/JavaFXGameShark/src/main/resources/fish/grey1.png"
   inkscape:export-xdpi="96"
   inkscape:export-ydpi="96">
  <defs
     id="defs4050" />
  <sodipodi:namedview
     id="base"
     pagecolor="#ffffff"
     bordercolor="#666666"
     borderopacity="1.0"
     inkscape:pageopacity="0.0"
     inkscape:pageshadow="2"
     inkscape:zoom="1.979899"
     inkscape:cx="191.18088"
     inkscape:cy="772.82143"
     inkscape:document-units="mm"
     inkscape:current-layer="layer1"
     showgrid="false"
     inkscape:window-width="1920"
     inkscape:window-height="1080"
     inkscape:window-x="334"
     inkscape:window-y="491"
     inkscape:window-maximized="0" />
  <metadata
     id="metadata4053">
    <rdf:RDF>
      <cc:Work
         rdf:about="">
        <dc:format>image/svg+xml</dc:format>
        <dc:type
           rdf:resource="http://purl.org/dc/dcmitype/StillImage" />
        <dc:title />
      </cc:Work>
    </rdf:RDF>
  </metadata>
  <g
     inkscape:label="Layer 1"
     inkscape:groupmode="layer"
     id="layer1">
    <path
       style="fill:none;stroke:#000000;stroke-width:0.26458332px;stroke-linecap:butt;stroke-linejoin:miter;stroke-opacity:1"
       d="m 78.065294,64.612149 c 0.689194,0.07215 1.378387,0.144306 2.06758,0.216459 0.114853,0.01202 0.247231,-0.026 0.344597,0.03608 0.137695,0.08782 0.170829,0.292819 0.30852,0.380673 2.444371,1.109416 0.187302,-0.09435 1.306234,0.8335 0.198786,0.164844 0.520521,0.195139 0.653117,0.41675 0.187516,0.313408 -0.03141,0.821505 0.236357,1.069865 0.254037,0.235622 0.767088,-0.112932 1.03379,0.10823 0.177814,0.147446 -0.190749,0.490977 -0.07215,0.689193 0.296495,0.495536 1.06709,0.637514 1.270157,1.178096 0.04056,0.108112 -0.07674,0.236475 -0.03608,0.344597 0.146437,0.389816 0.491133,0.69933 0.580965,1.105933 0.07475,0.338322 -0.202715,0.70045 -0.10823,1.03379 0.08908,0.314284 0.502167,0.455544 0.617041,0.761347 0.04056,0.108111 -0.296867,-0.141249 -0.344597,-0.03608 -0.1432,0.315505 -0.07215,0.689194 -0.10823,1.03379 -0.02405,0.229735 -0.15338,0.472961 -0.07215,0.689194 0.114873,0.305803 0.571239,0.437909 0.61704,0.761346 0.03617,0.255696 -0.328373,0.41046 -0.416749,0.653117 -0.07903,0.217041 -0.0481,0.459459 -0.07215,0.689193 -0.09795,0.935627 -0.04635,0.44275 -0.144305,1.378377 -0.03608,0.344597 -0.07215,0.689193 -0.108229,1.03379 -0.01203,0.114872 -0.0018,0.234316 -0.03608,0.344597 -0.162964,0.447434 -0.325939,0.894876 -0.488903,1.34231 -0.138912,0.217699 -0.320329,0.413534 -0.416759,0.653116 -0.21985,0.546318 -0.399359,1.111549 -0.524979,1.686897 -0.09853,0.451344 0.04662,0.95772 -0.144306,1.378386 -0.135006,0.29746 -0.585628,0.34166 -0.761347,0.617041 -0.25615,0.40143 -0.311119,0.90055 -0.488902,1.34231 -0.13635,0.338814 -0.301878,0.665143 -0.452827,0.997713 -0.150939,0.332572 -0.25636,0.689827 -0.452826,0.997714 -0.04968,0.07785 -1.576484,1.882816 -1.594835,1.923265 -0.1432,0.315504 0.07814,0.741707 -0.10823,1.03379 -0.263583,0.41307 -0.808811,0.566302 -1.142019,0.92556 -0.07854,0.08468 -0.02405,0.229735 -0.03608,0.344597 -0.253785,0.205673 -0.507571,0.411356 -0.761346,0.61704 -0.126898,0.102836 -0.363667,0.146078 -0.380674,0.30852 -0.02689,0.256847 0.37917,0.490105 0.272445,0.72526 -0.106766,0.235162 -0.468424,0.299334 -0.72527,0.272444 -0.114862,-0.01202 0.125835,-0.417306 0.03608,-0.344597 -0.200632,0.162604 -0.174991,0.562306 -0.41675,0.653117 -0.152897,0.05739 -0.291514,-0.543115 -0.30852,-0.380673 -0.02689,0.256856 0.473075,0.562666 0.272443,0.72527 -0.200631,0.162603 -0.39627,-0.38986 -0.653117,-0.41675 -0.324884,-0.03401 -0.436452,0.651054 -0.761346,0.61704 -0.162442,-0.01701 -0.325528,-0.218221 -0.30852,-0.380673 0.01202,-0.114862 0.459459,0.0481 0.344597,0.03608 -0.574322,-0.06013 -1.148653,-0.120254 -1.722984,-0.180382 -0.344597,-0.03608 -0.718275,0.03497 -1.03378,-0.108229 -0.148735,-0.06745 -0.182793,-0.276405 -0.30852,-0.380673 -0.198796,-0.164845 -0.490513,-0.216119 -0.653117,-0.41675 -0.07275,-0.08976 0.141247,-0.296856 0.03608,-0.344597 -0.344597,-0.03608 -0.689194,-0.07215 -1.03379,-0.108229 0.01203,-0.114862 0.133436,-0.282462 0.03608,-0.344597 -0.194722,-0.12424 -0.494473,0.05211 -0.689193,-0.07215 -1.283276,-0.818839 -0.01324,-1.134506 -0.853409,-1.831203 -0.177804,-0.147445 -0.511379,0.07529 -0.689193,-0.07215 -0.198786,-0.164845 -0.152336,-0.496641 -0.272444,-0.72527 -0.07596,-0.144595 -0.325516,-0.21823 -0.30851,-0.380672 0.01701,-0.162443 0.48351,-0.181623 0.380664,-0.308522 -0.145436,-0.179448 -0.459459,-0.0481 -0.689184,-0.07215 -0.114872,-0.01203 -0.356623,0.0788 -0.344597,-0.03608 0.02689,-0.256846 0.472456,-0.400946 0.41675,-0.653117 -0.05575,-0.252175 -0.490513,-0.216118 -0.653117,-0.41675 -0.07275,-0.08976 0.229725,0.02405 0.344597,0.03608 -0.217709,-0.138914 -0.454321,-0.251895 -0.653117,-0.41675 -0.125727,-0.104258 -0.325527,-0.218221 -0.30852,-0.380673 0.01701,-0.162442 0.483509,-0.181623 0.380672,-0.30851 -0.145444,-0.17946 -0.543757,0.107295 -0.689193,-0.07215 -0.145435,-0.179459 0.12194,-0.463654 0.07215,-0.689194 -0.03519,-0.15948 -0.205683,-0.253786 -0.30852,-0.380673 -0.102836,-0.126897 -0.170829,-0.292819 -0.30852,-0.380673 -0.09737,-0.06208 -0.356622,0.07878 -0.344597,-0.03608 0.02689,-0.256846 0.452962,-0.397416 0.41675,-0.653117 -0.100145,-0.707231 -0.721228,-0.598067 -0.92556,-1.142019 -0.07879,-0.356622 -0.157582,-0.713245 -0.236367,-1.069867 0.114862,0.01203 0.360787,0.150434 0.344596,0.03608 -0.07241,-0.5114 -0.326708,-0.982378 -0.544887,-1.45054 -0.216554,-0.464674 -0.653596,-0.412175 -0.580964,-1.105943 0.03803,-0.363235 0.486777,-0.634062 0.452826,-0.997704 -0.0304,-0.325253 -0.502166,-0.455553 -0.617041,-0.761346 -0.08123,-0.216233 0.15338,-0.472961 0.07215,-0.689194 -0.04056,-0.108111 -0.319674,0.0767 -0.344596,-0.03608 -0.07474,-0.338321 0.156773,-0.690731 0.108229,-1.03379 -0.02289,-0.161712 -0.325526,-0.218231 -0.30852,-0.380674 0.02689,-0.256846 0.38986,-0.39627 0.41675,-0.653116 0.01202,-0.114863 -0.303983,0.07204 -0.344597,-0.03608 -0.08122,-0.216232 0.0481,-0.459459 0.07215,-0.689193 0.07215,-0.689184 0.144306,-1.378377 0.216459,-2.06757 0.07215,-0.689194 0.144306,-1.378387 0.216459,-2.067581 0.02405,-0.229734 0.0481,-0.459458 0.07215,-0.689193 0.02405,-0.229734 -0.02327,-0.478845 0.07215,-0.689193 0.06745,-0.148735 0.292819,-0.17083 0.380673,-0.30852 0.06208,-0.09737 -0.026,-0.247221 0.03608,-0.344597 0.223998,-0.351035 0.673689,-0.564019 0.797422,-0.961627 0.07669,-0.246595 -0.411356,-0.507571 -0.272444,-0.72527 0.124251,-0.194721 0.593734,0.282487 0.689194,0.07215 0.150948,-0.33257 -0.274395,-0.706632 -0.236367,-1.069866 0.01203,-0.114863 0.236485,0.07664 0.344596,0.03608 0.152897,-0.05739 0.363667,-0.146078 0.380674,-0.30852 0.03803,-0.363235 -0.387306,-0.737295 -0.236367,-1.069867 0.09542,-0.210338 0.564943,0.266875 0.689193,0.07215 0.343834,-0.538837 -0.923194,-0.828579 -0.200291,-1.414463 0.179449,-0.145436 0.509744,0.217599 0.689194,0.07215 0.126887,-0.102837 -0.396375,-0.242982 -0.30852,-0.380673 0.138912,-0.217699 0.618533,-0.03728 0.725269,-0.272434 0.106766,-0.235161 -0.181632,-0.48352 -0.272444,-0.72527 0.241761,-0.09082 0.586357,-0.05474 0.72527,-0.272443 0.08781,-0.137695 -0.376023,-0.231944 -0.30852,-0.380673 0.135006,-0.29746 0.585628,-0.34166 0.761346,-0.617041 0.06208,-0.09736 -0.434329,0.03668 -0.344596,-0.03608 0.200631,-0.162604 0.560424,-0.07365 0.725269,-0.272444 0.147445,-0.177804 -0.02327,-0.478855 0.07215,-0.689193 0.06745,-0.148735 0.253785,-0.205683 0.380673,-0.30852 0.253776,-0.205684 0.585628,-0.34166 0.761346,-0.61704 0.06208,-0.09737 -0.434329,0.03667 -0.344596,-0.03608 0.200631,-0.162604 0.468423,-0.299333 0.725269,-0.272444 0.162443,0.01701 0.181623,0.48351 0.308521,0.380674 0.179448,-0.145436 -0.107306,-0.543759 0.07215,-0.689194 0.126887,-0.102837 0.149034,0.415909 0.30852,0.380673 0.318971,-0.07047 0.50756,-0.411357 0.761336,-0.617041 0.126898,-0.102836 0.21896,-0.285614 0.380674,-0.30852 0.343059,-0.04854 0.695468,0.182979 1.03379,0.10823 2.642285,-0.583761 0.0709,-0.302673 1.522692,-1.234071 0.434724,-0.278911 0.982378,-0.326718 1.450539,-0.544887 0.148035,-0.06896 0.24051,-0.224659 0.380674,-0.30852 0.357334,-0.213806 0.737295,-0.387306 1.105933,-0.580965 0.368648,-0.193658 0.737295,-0.387306 1.105943,-0.580964 0.368648,-0.193658 0.782435,-0.318773 1.105943,-0.580963 0.08976,-0.07275 -0.05368,-0.271878 0.03608,-0.344597 2.030253,-1.645438 -0.555664,0.870826 1.378386,0.144306 0.216233,-0.08123 -0.02327,-0.478845 0.07215,-0.689193 0.06755,-0.148725 0.253785,-0.205673 0.380674,-0.30852 0.126887,-0.102837 0.218231,-0.325527 0.380673,-0.30852 0.918918,0.0962 0.466091,1.093916 1.069866,-0.236368 0.503915,-1.110275 -0.67422,0.418795 0.344597,0.03608 0.24175,-0.09081 0.216118,-0.490503 0.416749,-0.653107 0.200631,-0.162603 0.496642,-0.152346 0.72526,-0.272444 0.144595,-0.07596 0.218231,-0.325527 0.380673,-0.308521 0.114872,0.01203 -0.0481,0.459459 -0.03608,0.344597 0.02405,-0.229734 -0.107296,-0.543757 0.07215,-0.689193 0.179458,-0.145435 0.463653,0.12194 0.689193,0.07215 0.159481,-0.03519 0.363667,-0.146078 0.380673,-0.30852 0.01202,-0.114863 -0.434319,0.03668 -0.344596,-0.03608 0.200631,-0.162603 0.468423,-0.299333 0.725269,-0.272443 0.162443,0.01701 -0.218221,0.325527 -0.380673,0.30852 -0.114862,-0.01203 -0.05368,-0.271888 0.03608,-0.344597 0.200631,-0.162603 0.586356,-0.05473 0.72527,-0.272444 0.08781,-0.137695 -0.470963,-0.397679 -0.30852,-0.380673 0.256846,0.02689 0.39627,0.38986 0.653116,0.41675 0.162443,0.01701 -0.325526,-0.218231 -0.30852,-0.380673 0.01701,-0.162442 0.227772,-0.251089 0.380673,-0.30852 0.108112,-0.04056 0.459459,0.0481 0.344597,0.03608 -0.459459,-0.0481 -0.937282,-0.007 -1.378387,-0.144306 -0.155957,-0.0485 -0.146068,-0.363666 -0.30852,-0.380673 -0.256846,-0.02689 -0.468413,0.299334 -0.72527,0.272443 -0.585699,-0.06132 -1.113329,-0.391481 -1.686897,-0.524978 -0.337463,-0.07856 -0.689193,-0.07215 -1.03379,-0.10823 -1.148652,-0.120255 -2.297314,-0.24051 -3.445966,-0.360765 -0.344597,-0.03608 -0.697757,-0.02378 -1.03378,-0.108229 -0.461841,-0.116019 -0.868709,-0.43932 -1.342311,-0.488903 -2.27802,-0.23849 -1.127089,0.57512 -3.137446,0.01991 -0.24892,-0.06879 -0.435408,-0.277836 -0.653117,-0.41675 -0.459459,-0.0481 -0.930332,-0.03174 -1.378377,-0.144305 -0.354212,-0.08897 -0.634479,-0.414798 -0.997713,-0.452826 -0.363235,-0.03803 -0.706632,0.274395 -1.069867,0.236367 -0.363235,-0.03803 -0.654543,-0.327835 -0.997714,-0.452827 -0.271517,-0.09891 -1.672379,-0.175084 -1.722983,-0.180382 -0.114862,-0.01203 -0.229724,-0.02405 -0.344597,-0.03608 -0.114862,-0.01203 -0.247221,0.026 -0.344586,-0.03608 -0.137695,-0.08781 -0.170841,-0.29281 -0.30852,-0.380674 -0.139471,-0.08901 -1.586758,-0.166121 -1.722984,-0.180382 -0.114862,-0.01203 0.271878,-0.05368 0.344597,0.03608 0.07275,0.08976 -0.07664,0.236486 -0.03608,0.344597 0.05739,0.152897 0.205683,0.253786 0.30852,0.380673 0.102837,0.126888 0.205683,0.253786 0.308521,0.380673 0.07878,0.356622 0.03915,0.762471 0.236367,1.069867 3.656466,3.032073 -1.015337,-1.292053 0.853397,1.831212 0.187527,0.313399 0.76776,0.16906 0.997713,0.452826 0.145446,0.17945 -0.179574,0.484697 -0.07215,0.689184 0.120108,0.228628 0.454331,0.251905 0.653117,0.41675 0.440972,0.365673 0.298757,0.568718 0.580964,1.105943 0.284956,0.542459 0.949123,0.980243 1.23408,1.522693 0.120098,0.228627 0.10984,0.524638 0.272444,0.72527 0.162603,0.200631 0.490513,0.216118 0.653117,0.416749 0.162603,0.200632 0.10984,0.524639 0.272443,0.72527 0.162604,0.200632 0.53301,0.188121 0.653117,0.41675 0.107412,0.204486 -0.121939,0.463644 -0.07215,0.689193 0.108817,0.492538 0.743682,0.433149 0.961628,0.797412 0.187526,0.31341 0.0064,0.786128 0.236367,1.069867 0.145446,0.17945 0.494472,-0.0521 0.689194,0.07215 0.09736,0.06218 -0.07664,0.236485 -0.03608,0.344597 0.05739,0.152897 0.251088,0.227772 0.30852,0.380673 0.04066,0.108122 -0.108829,0.254864 -0.03608,0.344597 0.162603,0.200631 0.45432,0.251904 0.653116,0.416749 0.125728,0.104258 0.205683,0.253786 0.308521,0.380674 0.30852,0.380673 0.61704,0.761346 0.92556,1.142019 0.205684,0.253776 0.365585,0.552831 0.61704,0.761347 0.198787,0.164844 0.459739,0.245574 0.653117,0.41675 0.553744,0.490151 0.896314,1.27367 1.578668,1.558758 0.543385,0.227033 1.175974,-0.08165 1.759059,-0.164204 0.114357,-0.01618 -0.229734,-0.02405 -0.344596,-0.03608 -0.01203,0.114862 -0.150938,0.332561 -0.03608,0.344586 0.162442,0.01701 0.253785,-0.205673 0.380672,-0.30851"
       id="path3933"
       inkscape:connector-curvature="0" />
    <path
       style="fill:none;stroke:#000000;stroke-width:0.26458332px;stroke-linecap:butt;stroke-linejoin:miter;stroke-opacity:1"
       d="m 71.897433,93.578129 c 1.162321,-0.931619 0.308164,-2.319269 0.705361,-3.40988 0.05588,-0.153465 0.292809,-0.17083 0.380673,-0.30852 0.12425,-0.194721 -0.0521,-0.494472 0.07215,-0.689193 0.08781,-0.137695 0.31317,-0.159791 0.380673,-0.308521 0.165369,-0.364371 -0.05715,-0.669409 0.108229,-1.03378 0.106766,-0.235161 0.310013,-0.417952 0.41675,-0.653116 0.135844,-0.299323 -0.02762,-0.734479 0.108229,-1.03379 0.06745,-0.148735 0.253776,-0.205685 0.380664,-0.308522 0.03608,-0.344596 -0.01031,-0.708233 0.108229,-1.03379 0.05588,-0.153475 0.363667,-0.146078 0.380673,-0.30852 0.01701,-0.162442 -0.325526,-0.218231 -0.30852,-0.380673 0.01701,-0.162442 0.32478,-0.155046 0.380674,-0.30852 0.25588,-2.444122 -0.222526,-0.227366 0.488902,-1.34231 0.12941,-0.202798 0.08295,-1.858325 0.216459,-2.067571 0.08781,-0.137694 0.363667,-0.146077 0.380673,-0.30852 0.01701,-0.162442 -0.325527,-0.218231 -0.30852,-0.380673 0.01701,-0.162442 0.292819,-0.170829 0.380673,-0.30852 0.06339,-0.09939 0.09198,-0.878598 0.10823,-1.03379 0.126236,-1.20579 0.150064,-1.433386 0.216458,-2.06757 0.01203,-0.114872 0.05368,0.271877 -0.03608,0.344587 -0.08976,0.07275 -0.229724,-0.02405 -0.344596,-0.03608 -0.778525,-0.0815 0.113494,-0.09198 -0.761347,0.61704 -0.08976,0.07275 -0.229724,-0.02405 -0.344586,-0.03607 -0.265811,0.320545 -0.50485,0.66532 -0.797423,0.961637 -0.229521,0.232445 -0.507561,0.411357 -0.761347,0.61704 -0.162964,0.447434 -0.195849,0.966974 -0.488903,1.34231 -0.402064,0.514955 -1.147661,0.699102 -1.522692,1.234071 -0.338038,0.482223 -0.323438,1.133564 -0.524979,1.686907 -0.854381,2.345749 0.0097,-0.551431 -1.286326,2.303947 -0.243379,0.536253 -0.323438,1.133564 -0.524979,1.686907 -0.302066,0.829346 -0.43843,0.975159 -0.869566,1.650821 -0.138923,0.217708 -0.310023,0.417951 -0.416749,0.653117 -0.04771,0.105174 0.026,0.247231 -0.03608,0.344596 -0.08781,0.137695 -0.345438,0.468006 -0.380673,0.308521 -0.09966,-0.451099 0.0962,-0.918918 0.144306,-1.378387"
       id="path3935"
       inkscape:connector-curvature="0" />
    <path
       style="fill:none;stroke:#000000;stroke-width:0.26458332px;stroke-linecap:butt;stroke-linejoin:miter;stroke-opacity:1"
       d="m 75.011221,83.801304 c -4.900286,-3.524008 -1.105975,-1.901855 -2.648534,-1.322402 -0.108112,0.04056 -0.247231,0.026 -0.344597,-0.03608 -0.137695,-0.08781 -0.251079,-0.227771 -0.30852,-0.380673 -0.04066,-0.108122 0.150929,-0.332573 0.03608,-0.344597 -0.162452,-0.01701 -0.363676,0.146077 -0.380683,0.308519 -0.01203,0.114872 0.459459,0.0481 0.344607,0.03608 -0.229725,-0.02405 -0.459469,-0.0481 -0.689193,-0.07215 -0.114863,-0.01203 0.275181,0.12835 0.344596,0.03608 0.776028,-1.032047 1.389162,-2.17705 2.083748,-3.265574"
       id="path3937"
       inkscape:connector-curvature="0" />
    <path
       style="fill:none;stroke:#000000;stroke-width:0.26458332px;stroke-linecap:butt;stroke-linejoin:miter;stroke-opacity:1"
       d="m 67.542083,88.593312 c 0.979045,-0.478118 2.032048,-0.827797 2.937145,-1.434362 0.191874,-0.128601 -0.519848,0.08492 -0.689193,-0.07215 -0.305313,-0.28319 -0.318773,-0.782435 -0.580964,-1.105943 0.0802,-0.972536 -0.76776,-0.169061 -0.997713,-0.452827 -1.538736,-1.898598 0.32949,-0.280527 0.03608,-0.344596 -1.150704,-0.251251 -2.249203,-0.699969 -3.373813,-1.049959"
       id="path3939"
       inkscape:connector-curvature="0" />
    <path
       style="fill:#999999;stroke:#000000;stroke-width:0.26458332px;stroke-linecap:butt;stroke-linejoin:miter;stroke-opacity:1"
       d="m 85.092835,80.676296 c -1.069876,0.236366 -2.121084,0.584071 -3.209609,0.7091 -0.114741,0.01323 -0.07878,-0.356621 0.03608,-0.344597 0.114872,0.01203 -0.0481,0.459459 -0.03608,0.344597 0.03608,-0.344597 0.07215,-0.689193 0.108229,-1.03379 0.01325,-0.126548 0.156679,-1.363075 0.144306,-1.378387 -0.145435,-0.179448 -0.713224,0.157584 -0.689173,-0.07215 0.01701,-0.162442 0.218221,-0.325527 0.380663,-0.308521 0.114872,0.01203 0.0788,0.356623 -0.03608,0.344597 -0.256847,-0.02689 -0.417953,-0.310014 -0.653107,-0.416749 -0.179993,-0.08168 -1.260989,-0.132016 -1.378387,-0.144306 -0.344597,-0.03608 -0.689193,-0.07215 -1.03379,-0.10823 -0.114862,-0.01203 0.459459,0.0481 0.344597,0.03608 -0.229735,-0.02405 -0.509745,-0.217589 -0.689194,-0.07215 -0.126888,0.102847 0.325527,0.218231 0.30852,0.380673 -0.01202,0.114862 -0.254863,-0.108829 -0.344596,-0.03608 -0.08976,0.07275 0.05368,0.271888 -0.03608,0.344597 -0.08976,0.07275 -0.236485,-0.07664 -0.344596,-0.03608 -1.509193,0.56692 0.370865,0.0148 -0.41676,0.653116 -0.08976,0.07275 -0.254864,-0.108829 -0.344597,-0.03608 -0.08976,0.07275 0.05368,0.271877 -0.03608,0.344596 -0.200632,0.162604 -0.586347,0.05474 -0.72527,0.272444 -0.08781,0.137695 0.325526,0.218231 0.30852,0.380673 -0.01701,0.162442 -0.31316,0.159791 -0.380673,0.30852 -0.111601,0.245806 -0.0613,1.579382 -0.180382,1.722974 -0.208517,0.251465 -0.62634,0.31958 -0.761347,0.61704 -0.06745,0.148735 0.251089,0.227772 0.308521,0.380673 0.04056,0.108111 -0.02405,0.229735 -0.03608,0.344597 -0.01325,0.126548 -0.156679,1.363075 -0.144306,1.378387 0.07275,0.08976 0.247231,-0.026 0.344606,0.03608 0.137685,0.08781 0.170831,0.292809 0.308521,0.380673 0.09736,0.06208 0.356621,-0.07878 0.344596,0.03608 -0.01481,0.141457 -1.753703,-0.555299 0.30852,0.380673 0.105174,0.04771 0.356622,-0.07878 0.344597,0.03608 -0.01202,0.114862 -0.459459,-0.0481 -0.344597,-0.03608 0.229735,0.02405 0.459459,0.0481 0.689194,0.07215 0.114862,0.01203 0.356622,-0.07878 0.344596,0.03608 -0.01202,0.114862 -0.356621,0.07879 -0.344596,-0.03608 0.01202,-0.114862 0.229734,0.02405 0.344596,0.03608 0.114863,0.01202 0.229735,0.02405 0.344597,0.03608 0.114862,0.01203 0.229725,0.02405 0.344597,0.03608 0.114862,0.01202 0.356622,-0.07879 0.344596,0.03608 -0.01202,0.114863 -0.356621,0.07879 -0.344596,-0.03608 0.01203,-0.114862 0.236485,0.07664 0.344596,0.03608 0.152897,-0.05739 0.227773,-0.251088 0.380674,-0.30852 0.108121,-0.04066 0.282471,0.133437 0.344596,0.03608 0.124251,-0.194721 0.0481,-0.459459 0.07215,-0.689193 0.01203,-0.114863 0.07879,0.356621 -0.03608,0.344596 -0.114872,-0.01203 -0.05368,-0.271877 0.03608,-0.344596 0.08976,-0.07275 0.332572,0.150938 0.344597,0.03608 0.05867,-0.560387 -0.63659,-0.154624 -0.272443,-0.72527 0.175718,-0.27538 0.585627,-0.34166 0.761346,-0.61704 0.12424,-0.194722 -0.107306,-0.543749 0.07215,-0.689193 0.08976,-0.07275 0.332571,0.150948 0.344597,0.03608 0.01701,-0.162442 -0.325528,-0.218221 -0.30852,-0.380673 0.01701,-0.162442 0.292809,-0.170831 0.380673,-0.30852 0.12424,-0.194722 -0.05211,-0.494464 0.07215,-0.689194 0.08781,-0.137685 0.363656,-0.146069 0.380662,-0.308511 0.01203,-0.114872 -0.45571,-0.0046 -0.344586,-0.03607 1.300572,-0.368635 2.623243,-0.654367 3.934859,-0.981546"
       id="path3943"
       inkscape:connector-curvature="0" />
    <path
       style="fill:#999999;stroke-width:0.34647945"
       d="m 65.152986,68.5454 c 0.430964,-0.625426 0.720351,-1.268259 0.643078,-1.428526 -0.07723,-0.160253 0.07059,-0.497574 0.328494,-0.74958 0.257953,-0.252011 0.353491,-0.4703 0.212313,-0.48508 -0.141179,-0.01478 -0.03583,-0.24269 0.234196,-0.506458 0.269983,-0.263772 0.406559,-0.58362 0.303508,-0.710771 -0.10305,-0.127161 0.02786,-0.540779 0.290837,-0.919164 0.263008,-0.378381 0.559868,-0.984747 0.659689,-1.347475 0.09981,-0.362739 0.436876,-0.888481 0.749,-1.168322 0.312136,-0.279851 0.579562,-0.623987 0.594298,-0.764747 0.03798,-0.362807 1.050098,-1.142682 1.216504,-0.937359 0.07604,0.09383 0.463788,-0.0794 0.861584,-0.385042 0.701592,-0.539059 0.755823,-0.516258 1.808817,0.760503 2.839401,3.44278 4.715339,5.085629 5.955441,5.215458 1.550347,0.162309 3.383846,1.267324 3.565287,2.148738 0.07673,0.372756 0.294553,0.693961 0.484038,0.713799 0.189474,0.01984 0.812441,0.649283 1.384371,1.398768 0.854143,1.11934 1.042925,1.731544 1.057091,3.428011 0.0095,1.135921 0.109281,2.136441 0.2218,2.22338 0.313482,0.242237 -0.612992,4.933208 -1.041491,5.272998 -0.207527,0.164597 -0.814776,0.35993 -1.349454,0.43409 -0.819713,0.113687 -0.960678,0.02532 -0.899029,-0.563542 0.159651,-1.524956 -0.1507,-1.823896 -2.106033,-2.028604 -1.613452,-0.168915 -2.005094,-0.07631 -2.808214,0.66402 l -0.933283,0.86032 0.178461,-1.810268 c 0.101287,-1.025096 0.02191,-1.826668 -0.182565,-1.848074 -0.467117,-0.0489 -3.757273,2.772008 -3.808961,3.26572 -0.02168,0.207078 -0.482099,0.861375 -1.023155,1.453989 -0.541057,0.592625 -1.012503,1.352246 -1.047659,1.68805 -0.07937,0.758147 -1.386886,2.934293 -1.740772,2.897244 -0.143238,-0.015 -0.340039,-0.192361 -0.437327,-0.394158 -0.0973,-0.201788 -0.749003,-0.429181 -1.448246,-0.505323 -1.403004,-0.152916 -2.285241,-0.674975 -1.925919,-1.139989 0.127724,-0.165289 -0.02556,-0.845165 -0.340629,-1.510839 -0.31507,-0.665675 -0.472426,-1.407672 -0.349672,-1.648902 0.122784,-0.241216 0.01332,-0.97809 -0.243161,-1.637489 -0.338777,-0.870939 -0.381615,-2.238302 -0.156594,-4.998575 0.260472,-3.194845 0.434442,-3.980682 1.093318,-4.936805 z"
       id="path3945"
       inkscape:connector-curvature="0" />
    <path
       style="fill:#999999;stroke-width:0.34647945"
       d="m 65.873834,46.495624 c 1.002793,0.336503 5.528483,1.080043 12.040008,1.978104 6.208916,0.856326 8.009273,1.172774 8.231383,1.446841 0.08477,0.104595 -0.461881,0.577979 -1.214724,1.052038 -0.752843,0.474068 -1.557937,1.004854 -1.789111,1.179533 -0.231164,0.17467 -1.025172,0.527634 -1.764451,0.784364 -0.739281,0.256739 -1.487246,0.662786 -1.66215,0.902346 -0.174894,0.239552 -1.393545,0.975865 -2.708122,1.636257 -1.314567,0.660382 -2.68219,1.508793 -3.039148,1.885342 -0.56605,0.597117 -0.757793,0.62065 -1.499853,0.184021 -0.467955,-0.275331 -0.834787,-0.653844 -0.815182,-0.841111 0.01961,-0.187276 -0.41413,-0.910952 -0.963851,-1.60817 -1.689152,-2.142365 -3.276906,-4.471215 -3.246483,-4.761807 0.01591,-0.15197 -0.309964,-0.408465 -0.724169,-0.569971 -0.559109,-0.218011 -0.628982,-0.35657 -0.271277,-0.5379 0.366455,-0.185773 0.295369,-0.39639 -0.296878,-0.879593 -0.428284,-0.349434 -0.828786,-0.963463 -0.890001,-1.364506 -0.09167,-0.60061 0.01655,-0.686268 0.614009,-0.485788 z"
       id="path3947"
       inkscape:connector-curvature="0" />
    <path
       style="fill:#999999;stroke-width:0.34647945"
       d="m 72.910776,91.479122 c 0.563221,-2.351829 2.396043,-7.367815 2.357097,-6.450785 -0.02986,0.702067 1.19514,1.422896 2.68269,1.578631 1.058277,0.110793 2.682016,-0.901411 2.39637,-1.493853 -0.09099,-0.18873 0.126245,-0.700694 0.482804,-1.137683 0.356539,-0.436992 0.644744,-0.881549 0.640465,-0.987903 -0.03496,-0.867857 0.245239,-1.195473 1.218197,-1.42443 0.618652,-0.145585 1.222074,-0.254517 1.340954,-0.242072 0.384777,0.04028 -0.350216,2.903417 -0.912042,3.552858 -0.299804,0.346557 -0.572309,0.889987 -0.605562,1.207621 -0.03325,0.317644 -0.618257,1.413197 -1.300001,2.434563 -0.681743,1.021367 -1.255846,2.012808 -1.275778,2.203198 -0.0463,0.442203 -2.285498,2.810956 -3.302332,3.49339 -1.047093,0.702733 -4.538365,0.313153 -4.281543,-0.477805 0.03872,-0.119156 0.290099,-1.134249 0.558684,-2.255759 z"
       id="path3949"
       inkscape:connector-curvature="0" />
    <path
       style="fill:#999999;stroke-width:0.34647945"
       d="m 69.651347,87.984616 c 1.297426,-0.790635 1.327408,-0.845462 0.646272,-1.181762 -0.866359,-0.427763 -0.881459,-0.265865 0.22858,-2.452269 0.836205,-1.646994 0.994614,-1.780274 1.931856,-1.625434 0.561542,0.09277 1.250809,0.452256 1.531716,0.798859 0.475299,0.586467 0.44537,0.822786 -0.431518,3.406284 -0.518218,1.526861 -1.096593,3.593945 -1.285287,4.593511 -0.270167,1.431178 -0.447474,1.764277 -0.8343,1.56743 -0.270183,-0.13749 -0.71115,-0.273001 -0.979941,-0.301142 -0.268791,-0.02814 -0.45472,-0.375819 -0.413178,-0.772621 0.04356,-0.416036 -0.190952,-0.821779 -0.553945,-0.958448 -0.500093,-0.188284 -1.273963,-1.547319 -1.212948,-2.130124 0.0066,-0.06335 0.624315,-0.488279 1.372624,-0.944291 z"
       id="path3951"
       inkscape:connector-curvature="0" />
    <path
       style="fill:#999999;stroke-width:0.34647945"
       d="m 65.949805,66.886812 c 2.199635,-5.000136 3.323905,-6.707625 4.807007,-7.300673 l 1.362536,-0.544841 1.310393,1.554603 c 1.86811,2.21627 4.27802,4.386192 4.952199,4.459045 0.317053,0.0342 1.141863,0.284983 1.832929,0.557169 1.491,0.587229 4.880448,4.472598 5.020091,5.754596 0.387559,3.558074 0.394613,5.167557 0.02916,6.654568 -0.384166,1.563126 -1.624502,4.010461 -1.524563,3.008128 0.02381,-0.237009 -0.256864,-0.462358 -0.623331,-0.500725 -0.470697,-0.04928 -0.669191,-0.351277 -0.676138,-1.028753 -0.0092,-0.89641 -0.130133,-0.979273 -1.853355,-1.269839 -1.461934,-0.246461 -2.063664,-0.18116 -2.907121,0.315677 l -1.063605,0.62651 0.163424,-1.560999 c 0.106915,-1.021228 0.01409,-1.576632 -0.268445,-1.606212 -0.471434,-0.04936 -2.582167,1.639318 -2.548225,2.038683 0.01152,0.135798 -0.243402,0.360526 -0.566548,0.499394 -0.323147,0.138877 -0.512824,0.407458 -0.421507,0.596845 0.09131,0.189387 -0.0074,0.326182 -0.219255,0.304003 -0.211892,-0.02218 -0.314007,0.107469 -0.226904,0.28812 0.0871,0.180641 -0.06747,0.38902 -0.343441,0.463057 -0.27599,0.07405 -0.667304,0.637383 -0.869576,1.251872 -0.202271,0.614489 -0.495981,1.182213 -0.65267,1.26161 -0.156701,0.07941 -0.371632,0.448814 -0.477644,0.820928 -0.392403,1.377409 -1.179586,1.518532 -3.700675,0.663451 -1.090469,-0.369843 -1.020302,-0.178105 -2.17932,-5.957048 -0.515133,-2.568478 0.321406,-8.341374 1.644589,-11.349169 z"
       id="path3955"
       inkscape:connector-curvature="0" />
    <path
       style="fill:#999999;stroke-width:0.34647945"
       d="m 73.287445,79.848061 c 0.500381,-0.809831 1.367654,-1.816409 1.927261,-2.236836 l 1.017474,-0.764413 -0.536238,2.730839 c -0.70844,3.607836 -0.814394,3.734884 -2.19735,2.634636 l -1.120927,-0.891792 z"
       id="path3961"
       inkscape:connector-curvature="0" />
    <path
       style="fill:#999999;stroke-width:0.34647945"
       d="m 66.9168,85.103446 c 0.367869,0.03851 0.753883,0.246386 0.857805,0.461928 0.103931,0.215553 0.414589,0.33138 0.690361,0.257402 0.706847,-0.189632 0.495042,1.38258 -0.269765,2.002425 -0.781892,0.633692 -0.733463,0.66235 -1.420388,-0.840473 -0.737163,-1.612742 -0.710166,-1.970496 0.141957,-1.881285 z"
       id="path3967"
       inkscape:connector-curvature="0" />
  </g>
</svg>
