<?xml version="1.0" encoding="UTF-8" standalone="no"?>
<!-- Created with Inkscape (http://www.inkscape.org/) -->

<svg
   xmlns:dc="http://purl.org/dc/elements/1.1/"
   xmlns:cc="http://creativecommons.org/ns#"
   xmlns:rdf="http://www.w3.org/1999/02/22-rdf-syntax-ns#"
   xmlns:svg="http://www.w3.org/2000/svg"
   xmlns="http://www.w3.org/2000/svg"
   xmlns:sodipodi="http://sodipodi.sourceforge.net/DTD/sodipodi-0.dtd"
   xmlns:inkscape="http://www.inkscape.org/namespaces/inkscape"
   width="210mm"
   height="297mm"
   viewBox="0 0 210 297"
   version="1.1"
   id="svg4213"
   inkscape:version="0.92.4 (f8dce91, 2019-08-02)"
   sodipodi:docname="red.svg">
  <defs
     id="defs4207" />
  <sodipodi:namedview
     id="base"
     pagecolor="#ffffff"
     bordercolor="#666666"
     borderopacity="1.0"
     inkscape:pageopacity="0.0"
     inkscape:pageshadow="2"
     inkscape:zoom="5.6"
     inkscape:cx="359.21905"
     inkscape:cy="813.42563"
     inkscape:document-units="mm"
     inkscape:current-layer="layer1"
     showgrid="false"
     inkscape:window-width="3840"
     inkscape:window-height="2123"
     inkscape:window-x="0"
     inkscape:window-y="0"
     inkscape:window-maximized="1" />
  <metadata
     id="metadata4210">
    <rdf:RDF>
      <cc:Work
         rdf:about="">
        <dc:format>image/svg+xml</dc:format>
        <dc:type
           rdf:resource="http://purl.org/dc/dcmitype/StillImage" />
        <dc:title />
      </cc:Work>
    </rdf:RDF>
  </metadata>
  <g
     inkscape:label="Layer 1"
     inkscape:groupmode="layer"
     id="layer1">
    <path
       style="fill:none;stroke:#000000;stroke-width:0.26458332px;stroke-linecap:butt;stroke-linejoin:miter;stroke-opacity:1"
       d="m 87.387429,92.627928 c 0.02963,0.652659 0.05926,1.305319 0.08888,1.957971 0.08529,0.07788 0.333733,0.148352 0.255856,0.233636 -0.110135,0.12061 -0.496899,-0.140939 -0.489492,0.02222 0.01048,0.230753 0.399122,0.265603 0.511713,0.467272 0.07956,0.142663 0.132356,0.368882 0.02222,0.489493 -0.07788,0.08528 -0.261067,-0.349032 -0.255857,-0.233636 0.0117,0.257977 0.266366,0.465145 0.278078,0.723128 0.0052,0.115423 -0.261067,-0.349031 -0.255857,-0.233636 0.0117,0.257978 0.266366,0.465145 0.278078,0.723129 0.01329,0.292533 -0.812273,-1.248887 -0.233636,0.255857 0.04149,0.10776 0.333739,0.148345 0.255856,0.233636 -0.110135,0.12061 -0.37935,-0.0984 -0.489486,0.02221 -0.07788,0.08529 0.214363,0.125869 0.255857,0.233636 0.05866,0.152417 -0.03641,0.337039 0.02221,0.4895 0.04149,0.10776 0.33374,0.148345 0.255857,0.233636 -0.110136,0.12061 -0.496893,-0.140946 -0.489493,0.02222 0.0087,0.191153 0.942224,0.509628 0.533927,0.956757 -0.110135,0.120611 -0.496885,-0.140939 -0.489478,0.02222 0.01734,0.382322 0.825937,0.495067 0.767563,0.700901 -0.06304,0.222228 -0.311519,0.341148 -0.467272,0.511718 -0.07788,0.0853 0.148353,-0.33374 0.233636,-0.25586 0.190711,0.17415 0.152222,0.49762 0.27807,0.72312 0.09913,0.1776 0.728987,0.54502 0.76757,0.70091 0.07852,0.31708 -0.07281,0.67408 0.04444,0.97898 0.04149,0.10776 0.118233,-0.25064 0.233635,-0.25585 0.115423,-0.005 0.170574,0.15576 0.255857,0.23363 0.255857,0.23364 0.511714,0.46727 0.76757,0.70091 0.76757,0.70091 1.535141,1.40182 2.302703,2.10272 0.133792,0.12217 0.925474,0.90671 1.023427,0.93454 0.157105,0.0446 0.379357,0.0984 0.489493,-0.0222 0.07788,-0.0853 -0.34114,-0.31151 -0.255857,-0.23364 0.170574,0.15576 0.341147,0.31152 0.511714,0.46728 0.08528,0.0779 0.14478,0.20208 0.255856,0.23363 0.157105,0.0446 0.332355,-0.0668 0.4895,-0.0222 0.22222,0.063 0.355951,0.63784 0.51171,0.46727 0.110136,-0.12061 -0.185383,-0.48208 -0.02223,-0.4895 0.230746,-0.0105 0.341147,0.31152 0.511713,0.46727 0.08528,0.0779 -0.250639,-0.11824 -0.255856,-0.23364 -0.0052,-0.11542 0.118233,-0.25064 0.233629,-0.25585 0.292532,-0.0133 0.259183,0.74382 0.745349,0.21142 0.110142,-0.12062 -0.132356,-0.36888 -0.02222,-0.48949 0.246279,-0.26971 0.627942,-0.375 0.956765,-0.53394 0.232503,-0.1124 0.548987,-0.0874 0.723128,-0.27808 0.174141,-0.1907 0.03727,-0.55464 0.211415,-0.74535 0.246273,-0.26969 0.627942,-0.37499 0.956765,-0.53393 0.232503,-0.1124 0.548993,-0.0874 0.723133,-0.27807 0.96681,-1.05875 -1.545863,0.10984 0.44505,-1.00121 0.14258,-0.0796 0.33703,0.0364 0.4895,-0.0222 0.10776,-0.0415 0.15575,-0.17056 0.23363,-0.25585 0.0779,-0.0853 0.20209,-0.14478 0.23364,-0.25586 0.0446,-0.1571 0.0984,-0.37936 -0.0222,-0.48949 -0.0853,-0.0779 -0.31151,0.34114 -0.23363,0.25585 0.15576,-0.17057 0.31152,-0.34114 0.46727,-0.51171 0.0779,-0.0853 0.27509,-0.14806 0.23363,-0.25586 -1.43093,-1.30666 -0.17777,0.0589 -0.0222,-0.48949 0.0705,-0.24845 -0.34854,-0.47468 -0.27807,-0.72313 0.0446,-0.1571 0.44491,0.13491 0.48949,-0.0222 0.0705,-0.24844 -0.34855,-0.474684 -0.27808,-0.723127 1.12233,-0.05094 -0.0446,0.157105 0.21142,-0.745346 0.0446,-0.157104 0.6101,0.08791 0.48949,-0.02222 -0.1907,-0.174138 -0.65265,0.02963 -0.74535,-0.211412 -0.27807,-0.723128 0.72314,-0.27807 0.70091,-0.76757 -0.0117,-0.257984 -0.34855,-0.474671 -0.27808,-0.723128 0.0446,-0.157105 0.61011,0.08791 0.4895,-0.02221 -0.1907,-0.174142 -0.6195,0.0141 -0.74535,-0.211415 -0.12582,-0.225538 0.17231,-0.490077 0.21141,-0.745356 0.0247,-0.161448 0.0364,-0.337032 -0.0222,-0.489493 -0.0415,-0.10776 -0.17057,-0.155753 -0.25586,-0.233636 -0.007,-0.163159 0.0364,-0.337039 -0.0222,-0.489493 -0.0829,-0.215594 -0.4288,-0.25167 -0.5117,-0.467265 -0.0587,-0.152417 0.0574,-0.346867 -0.0222,-0.489492 -1.16474,-1.06358 -0.12477,0.107266 -0.53394,-0.956757 -0.0829,-0.215595 -0.42881,-0.251678 -0.51172,-0.467272 -0.0587,-0.152417 0.0984,-0.379357 -0.0222,-0.489493 -0.12061,-0.110135 -0.40989,0.164839 -0.48949,0.02222 -0.159189,-0.285251 0.13616,-0.706789 -0.0444,-0.978985 -0.142801,-0.215169 -0.652655,0.02963 -0.745352,-0.211415 -0.636318,-1.654742 2.714172,1.070842 -0.06666,-1.468478 -0.190703,-0.174141 -0.619494,0.01409 -0.745341,-0.211408 -0.125828,-0.225538 0.223126,-0.487366 0.211415,-0.74535 -0.0048,-0.104968 -0.781257,-2.12101 -0.834233,-2.169385 -0.269695,-0.246273 -0.785041,-0.150672 -1.001206,-0.445051 -0.193316,-0.26333 0.04907,-0.665993 -0.04444,-0.978985 -0.104555,-0.349929 -0.402841,-0.615877 -0.533934,-0.956765 -0.05865,-0.15241 0.07445,-0.357842 -0.02222,-0.489492 -0.273423,-0.372367 -0.682279,-0.623025 -1.023419,-0.934537 -0.08529,-0.07788 -0.228123,-0.121507 -0.255857,-0.233636 -0.07852,-0.317085 -0.02963,-0.652659 -0.04444,-0.978985 -0.0074,-0.163167 0.0364,-0.337039 -0.02222,-0.489493 -0.177981,-0.318919 -0.355961,-0.637838 -0.533935,-0.956764 -0.07788,0.08529 -0.177349,0.356723 -0.233636,0.255856 -0.202929,-0.363625 -0.281421,-0.796627 -0.300298,-1.212621 -0.0052,-0.115422 0.318912,-0.177973 0.233629,-0.255849 -0.269688,-0.246266 -0.823225,-0.126132 -1.001199,-0.445058 -0.112591,-0.201669 0.522801,-0.287494 0.467265,-0.511706 -0.08328,-0.336327 -0.598706,-0.398344 -0.767555,-0.700895 -0.05631,-0.100844 0.275089,-0.148059 0.233636,-0.255856 -0.08291,-0.215595 -0.383997,-0.274812 -0.511714,-0.467272 -0.142798,-0.215169 -0.266366,-0.465145 -0.278077,-0.723129 -0.0052,-0.115422 0.341132,0.311506 0.255856,0.233636 -0.170581,-0.155766 -0.39913,-0.26561 -0.511713,-0.467272 -0.07963,-0.142588 0.09839,-0.379357 -0.02222,-0.489492 -0.12061,-0.110136 -0.368882,0.132356 -0.489493,0.02222 -0.08528,-0.07788 0.238903,-0.140464 0.233636,-0.255857 -0.01047,-0.230753 -0.667466,-0.296706 -0.511713,-0.467272 0.07788,-0.08529 0.17798,0.318919 0.255857,0.233636 0.110142,-0.120618 0.09839,-0.379357 -0.02222,-0.489493 -0.08528,-0.07788 -0.118234,0.25064 -0.233636,0.255857 -0.115423,0.0052 -0.170566,-0.155753 -0.255857,-0.233636 -0.08528,-0.07788 -0.333733,-0.148353 -0.255857,-0.233636 0.07788,-0.08529 0.177981,0.318919 0.255857,0.233636 0.41262,-0.451863 -0.622579,-0.859688 -0.533934,-0.956764 0.110142,-0.120618 0.610111,0.08792 0.489493,-0.02222 -1.871555,-1.519588 -0.482079,0.185388 -0.489493,0.02222 -0.01171,-0.257985 -0.215995,-0.472451 -0.278077,-0.723129 -0.03926,-0.158543 0.0984,-0.379351 -0.02222,-0.489493 -0.08528,-0.07788 -0.228369,0.37125 -0.233636,0.255857 -0.09571,-2.108423 0.941058,0.810306 -0.556147,-1.446251 -0.180616,-0.272181 0.196779,-0.758714 -0.04444,-0.978985 -0.269695,-0.246272 -0.823226,-0.126132 -1.001206,-0.445051 -0.112591,-0.201668 0.40424,-0.289494 0.467272,-0.511713 0.03155,-0.111076 -0.21437,-0.125876 -0.255857,-0.233636 -0.05866,-0.152417 0.09839,-0.379357 -0.02222,-0.489493 -0.08529,-0.07788 -0.148353,0.333733 -0.233636,0.255857 -0.190703,-0.174141 -0.266366,-0.465145 -0.278077,-0.723128 -0.0052,-0.115423 0.34114,0.311512 0.255857,0.233635 -0.170574,-0.155759 -0.341148,-0.311519 -0.511714,-0.467271 -0.08528,-0.07788 0.17798,0.318919 0.255857,0.233636 0.110135,-0.120611 0.09839,-0.379358 -0.02222,-0.489493 -0.12061,-0.110136 -0.332361,0.06679 -0.489493,0.02222 -0.111143,-0.03148 -0.333733,-0.148353 -0.255856,-0.233636 1.095832,-1.200056 0.07893,1.738816 -0.02222,-0.489493 -0.0074,-0.163159 0.610103,0.08792 0.489492,-0.02222 -0.190703,-0.174141 -0.487365,-0.223126 -0.745349,-0.211415 -0.115422,0.0052 0.34114,0.311513 0.255857,0.233636 -0.170574,-0.155759 -0.34114,-0.311512 -0.511714,-0.467272 -0.08528,-0.07788 0.333733,0.148353 0.255857,0.233636 -0.07788,0.08528 -0.333733,-0.148352 -0.255857,-0.233636 0.110136,-0.12061 0.332355,-0.06679 0.489493,-0.02222 0.333733,0.148352 0.667466,0.296705 1.001206,0.445051 0.07788,-0.08528 0.118234,-0.25064 0.233636,-0.255857 0.115422,-0.0052 0.154233,0.178756 0.255857,0.233636 0.520515,0.281023 0.91807,0.564641 1.490698,0.42283 0.250672,-0.06208 0.482086,-0.18538 0.723129,-0.278078 0.333733,0.148353 0.636341,0.461636 1.001199,0.445059 0.230746,-0.01047 0.236526,-0.501239 0.467272,-0.511714 0.163166,-0.0074 -0.12703,0.423149 0.02222,0.489493 0.214627,0.09537 1.872569,-0.166868 1.95797,-0.08888 0.120611,0.110135 -0.140946,0.496892 0.02221,0.489486 0.230753,-0.01047 0.236526,-0.501239 0.467271,-0.511714 0.4615,-0.02094 0.561936,0.955493 1.023427,0.934544 0.230754,-0.01047 0.240331,-0.468717 0.467272,-0.511714 3.274985,-0.620541 -0.07768,0.376966 1.746555,0.656466 1.504021,0.230431 0.06768,-0.625047 1.212615,-0.300291 0.351356,0.09966 0.640197,0.389729 1.001206,0.445051 0.11419,0.01747 0.15576,-0.170573 0.23364,-0.255856 0.16315,-0.0074 0.33236,-0.0668 0.48949,-0.02222 0.22222,0.06302 0.29611,0.550171 0.51171,0.467272 0.2156,-0.08291 0.24505,-0.574745 0.46727,-0.511714 0.9014,0.255678 -0.0674,1.373159 0.25585,0.233623 0.0315,-0.111076 0.14836,-0.333734 0.23364,-0.255865 0.12062,0.110149 -0.0984,0.379365 0.0222,0.4895 0.0853,0.07788 0.11824,-0.250639 0.23364,-0.255864 0.11543,-0.0052 0.33373,0.14836 0.25586,0.233636 -0.0779,0.08528 -0.14045,-0.238889 -0.25586,-0.233636 -0.11542,0.0052 -0.15576,0.170581 -0.23364,0.255864 -0.15576,0.170574 -0.3115,0.341133 -0.46727,0.511714 -0.0779,0.08528 0.31151,-0.34114 0.23364,-0.255857 -0.15576,0.170574 -0.31151,0.341133 -0.46728,0.511714 -0.0779,0.08528 0.31152,-0.34114 0.23364,-0.255857 -0.46727,0.511713 -0.93454,1.023427 -1.40181,1.535133 -0.0779,0.08529 -0.18671,0.15034 -0.23363,0.255856 -0.10488,0.236011 -0.1723,0.490091 -0.21142,0.74535 -0.0247,0.16144 0.13236,0.368882 0.0222,0.489492 -0.85202,0.933056 -0.904305,0.08301 -1.424035,1.045648 -0.122715,0.227222 -0.07805,0.524198 -0.211408,0.745342 -0.178964,0.29668 -0.53628,0.462714 -0.700908,0.76757 -0.07761,0.143717 0.132357,0.368882 0.02222,0.489493 -0.246272,0.269695 -0.669492,0.308408 -0.956764,0.533934 -0.272551,0.213943 -0.467272,0.511713 -0.700908,0.76757 -0.07788,0.08528 -0.202083,0.144781 -0.233636,0.255857 -0.113627,0.400611 0.02585,0.878248 -0.189194,1.234842 -0.133318,0.221185 -0.514957,0.125235 -0.723129,0.278078 -0.279238,0.205101 -0.467272,0.511714 -0.700908,0.76757 -0.07788,0.08528 -0.202083,0.144781 -0.233636,0.255857 -0.113627,0.400611 0.02585,0.878234 -0.189187,1.234835 -0.133324,0.221191 -0.514963,0.125241 -0.723129,0.278077 -0.279238,0.205101 -0.467272,0.511713 -0.700907,0.76757 -0.07788,0.08528 -0.238896,0.140457 -0.233636,0.255857 0.01171,0.257984 0.400798,0.495856 0.278077,0.723128 -0.173496,0.321391 -0.710492,0.264239 -0.956764,0.533935 -0.246273,0.269695 -0.389736,0.64019 -0.445051,1.001206 -0.01747,0.114188 0.33374,0.148345 0.255857,0.233636 -0.286233,0.313455 -1.262131,0.474861 -1.42403,1.04564 -0.08914,0.314269 0.133583,0.664716 0.04444,0.978985 -0.03148,0.111144 -0.140457,-0.238896 -0.255857,-0.233636 -0.115422,0.0052 -0.275089,0.14806 -0.233636,0.255857 0.08291,0.215594 0.574745,0.245052 0.511714,0.467272 -0.07048,0.24845 -0.465145,0.266366 -0.723129,0.278077 -0.115422,0.0052 0.311512,-0.34114 0.233636,-0.255856 -0.15576,0.170573 -0.550171,0.296125 -0.467272,0.511713 0.09269,0.241036 0.733638,-0.04657 0.745349,0.211415 0.01171,0.257984 -0.49762,0.152223 -0.723128,0.278078 -0.76995,0.429676 0.253674,0.185871 0.255857,0.233636 0.01047,0.230745 -0.311513,0.341139 -0.467272,0.511713 -0.07788,0.08528 -0.318927,0.177974 -0.233636,0.255857 0.190704,0.174141 0.733638,-0.04657 0.745349,0.211415 0.02475,0.545226 -0.981516,-0.01131 -0.956764,0.533934 0.01171,0.257984 0.348546,0.474672 0.278077,0.723128 -0.0446,0.157097 -0.4969,-0.140952 -0.489492,0.02222 0.01047,0.230746 0.34114,0.311513 0.511713,0.467272 0.08528,0.07788 -0.224341,-0.344746 -0.255856,-0.233636 -0.08914,0.314256 0.177136,0.680477 0.04445,0.978978 -0.06631,0.149284 -0.368882,0.132356 -0.489493,0.02222 -0.08529,-0.07788 0.148346,-0.33374 0.233636,-0.255857 0.08528,0.07788 -0.202157,0.144713 -0.233636,0.255857 -0.0446,0.157104 -0.0984,0.37935 0.02222,0.489492 0.12061,0.110136 0.56708,-0.165943 0.489485,-0.02223 -0.274343,0.508144 -0.77879,0.852861 -1.168172,1.27929 z"
       id="path3909"
       inkscape:connector-curvature="0"
       inkscape:export-xdpi="96"
       inkscape:export-ydpi="96" />
    <path
       style="fill:#999999;stroke-width:0.34647945"
       d="m 94.303719,77.749603 c -0.433922,0.248916 -0.688199,0.319209 -0.565074,0.156198 0.180052,-0.238404 -1.06802,-2.764319 -2.071087,-4.191549 -0.190678,-0.271349 -0.337502,-0.543861 -1.136467,-2.109734 -0.138758,-0.271958 -0.374127,-0.563384 -0.523036,-0.64763 -0.148917,-0.08425 -0.306973,-0.53245 -0.35124,-0.996005 -0.04427,-0.463555 -0.271943,-0.878947 -0.505947,-0.923096 -0.234018,-0.04415 -0.324446,-0.190912 -0.200912,-0.326195 0.123514,-0.135261 -0.02374,-0.705533 -0.327221,-1.267283 l -0.551802,-1.021357 1.843539,0.288081 c 1.013953,0.158443 2.266618,0.247682 2.783694,0.198309 0.517083,-0.04938 1.095008,0.05163 1.284279,0.224465 0.189271,0.172833 0.449263,0.199112 0.577766,0.05839 0.128497,-0.140718 0.450481,-0.05785 0.715509,0.184166 0.274384,0.250554 0.753705,0.263868 1.113193,0.03092 0.347227,-0.225027 0.681396,-0.233146 0.74259,-0.01807 0.06119,0.215087 0.698763,0.399521 1.416814,0.409869 3.475043,0.05005 3.470893,-0.198583 0.07523,4.511156 -0.61707,0.855854 -1.577673,2.024204 -2.134667,2.596327 -0.556979,0.572137 -0.96232,1.217375 -0.900713,1.433901 0.127605,0.448517 -0.160087,0.764134 -1.284229,1.409336 z"
       id="path3969"
       inkscape:connector-curvature="0"
       inkscape:export-xdpi="96"
       inkscape:export-ydpi="96" />
    <path
       style="fill:#ff0000;stroke-width:0.34647945"
       d="m 99.066222,104.29431 c -0.253787,0.0722 -0.622704,0.40805 -0.819805,0.74632 -0.647108,1.11054 -2.73563,1.63143 -3.959173,0.98745 -1.621954,-0.85368 -5.834407,-5.16892 -5.884495,-6.028097 -0.02235,-0.383297 -0.177634,-2.194421 -0.345074,-4.024721 -0.227187,-2.483262 -0.151122,-3.497864 0.299712,-3.997909 0.332392,-0.368455 0.600339,-1.187621 0.595678,-1.820143 -0.0047,-0.632529 0.209398,-1.312446 0.4757,-1.510929 0.266295,-0.19849 0.360649,-0.473697 0.209578,-0.611648 -0.151042,-0.137924 -0.07853,-0.465511 0.161141,-0.727976 0.239671,-0.262466 0.473406,-0.988273 0.519409,-1.612895 0.05831,-0.791756 0.313805,-1.288094 0.843641,-1.638918 0.495271,-0.327935 0.654108,-0.599904 0.456071,-0.780742 -0.204586,-0.186818 -0.01973,-0.478089 0.565566,-0.891158 0.54705,-0.386063 0.767072,-0.707152 0.593308,-0.865824 -0.426681,-0.389625 0.605355,-1.318204 1.204159,-1.083452 0.29212,0.114524 0.572104,0.559387 0.622173,0.988589 0.05007,0.429202 0.474776,1.255877 0.94379,1.837074 0.469014,0.581197 0.889505,1.441629 0.934425,1.912062 0.04493,0.470441 0.330539,0.952903 0.634702,1.072154 0.645748,0.253162 1.464121,2.236908 1.091259,2.645232 -0.140189,0.153523 0.02116,0.424335 0.358551,0.601812 0.337425,0.17744 0.538274,0.514411 0.44641,0.748734 -0.09184,0.234343 0.349985,1.131321 0.981886,1.993333 1.419616,1.936563 2.366966,3.925242 2.040296,4.282982 -0.13505,0.147896 -0.0728,0.426614 0.13823,0.619366 0.21108,0.192746 0.19672,0.555306 -0.0319,0.805684 -0.22863,0.250377 -0.33697,0.831466 -0.24077,1.291311 0.0962,0.459849 -0.003,1.031349 -0.22131,1.269999 -0.21792,0.23866 -0.30742,0.59303 -0.19889,0.7875 0.22336,0.40025 -1.707831,2.80382 -2.414258,3.00481 z"
       id="path3971"
       inkscape:connector-curvature="0"
       inkscape:export-xdpi="96"
       inkscape:export-ydpi="96" />
    <path
       style="fill:#ffff00;stroke-width:0.34647945"
       d="m 94.136151,77.596588 c -0.426889,-0.389814 -4.148883,-7.191625 -4.890673,-8.937519 -0.784641,-1.846762 -0.78443,-1.960783 0.0036,-1.996564 0.459691,-0.02086 0.90478,0.01864 0.989101,0.0878 0.08446,0.069 1.793589,0.294821 3.798379,0.501493 2.004783,0.206678 4.134327,0.475837 4.732323,0.598129 0.597995,0.122291 1.169731,0.13204 1.270522,0.02166 0.24204,-0.265058 0.93785,0.38139 0.8592,0.798258 -0.0505,0.267603 -5.711433,8.112251 -6.391491,8.856989 -0.111889,0.12253 -0.278837,0.153913 -0.370995,0.06976 z"
       id="path3973"
       inkscape:connector-curvature="0"
       inkscape:export-xdpi="96"
       inkscape:export-ydpi="96" />
    <path
       style="fill:none;stroke:#000000;stroke-width:0.26458332px;stroke-linecap:butt;stroke-linejoin:miter;stroke-opacity:1"
       d="m 87.476313,94.585899 c 0.867667,1.105117 1.735341,2.210227 2.603001,3.315337 0.163159,-0.0074 0.482078,-0.185387 0.489493,-0.02222 0.01047,0.230746 -0.311513,0.34114 -0.467272,0.511714 -0.07788,0.08528 0.122519,-0.28738 0.233636,-0.255857 0.222219,0.06303 0.341139,0.311512 0.511706,0.467265 0.08529,0.07788 -0.341133,-0.311505 -0.255857,-0.233636 0.170574,0.15576 0.341147,0.311519 0.511713,0.467272 0.08529,0.07788 -0.341139,-0.311512 -0.255856,-0.233636 1.677283,1.531613 -0.909706,-0.830699 0.76757,0.700908 0.08528,0.07788 -0.34114,-0.311513 -0.255857,-0.233636 0.170581,0.155766 0.280968,0.477746 0.511714,0.467272 0.720238,-0.0327 -1.207641,-1.571961 0.489492,-0.02222 0.08528,0.07788 -0.250639,-0.118234 -0.255857,-0.233636 -0.0052,-0.115422 0.148353,-0.333733 0.233636,-0.255857 0.190704,0.174141 0.08737,0.548987 0.278078,0.723129 0.12061,0.110135 -0.18538,-0.482086 -0.02222,-0.489493 0.230746,-0.01047 0.280968,0.477747 0.511714,0.467272 0.163159,-0.0074 -0.185381,-0.482086 -0.02222,-0.489493 0.230746,-0.01047 0.280967,0.477747 0.511713,0.467272 0.16316,-0.0074 0.09839,-0.379357 -0.02222,-0.489493 -0.08528,-0.07788 -0.318919,0.177981 -0.233636,0.255857 0.190704,0.174141 0.5043,0.304106 0.74535,0.211415 0.152417,-0.05865 -0.06679,-0.332361 -0.02222,-0.489492 0.03155,-0.111076 0.155759,-0.170574 0.233636,-0.255857 0.07788,-0.08528 0.155759,-0.170574 0.233636,-0.255857 0.07788,-0.08528 0.148352,-0.333733 0.233636,-0.255857 0.08528,0.07788 -0.148353,0.333734 -0.233636,0.255857 -0.08528,-0.07788 0.155752,-0.170566 0.233636,-0.255857 0.07788,-0.08528 0.155752,-0.170566 0.233635,-0.255856 0.07788,-0.08528 0.148353,-0.333733 0.233636,-0.255857 0.08528,0.07788 -0.228376,0.371257 -0.233636,0.255857 -0.01171,-0.257984 0.223127,-0.487366 0.211416,-0.74535 -0.0052,-0.115422 -0.25064,-0.118233 -0.255857,-0.233635 -0.0052,-0.115423 0.238896,-0.140457 0.233636,-0.255857 -0.0052,-0.115423 -0.33374,-0.148346 -0.255857,-0.233636 0.110136,-0.12061 0.610103,0.08792 0.489493,-0.02222 -0.190704,-0.174141 -0.554646,-0.03727 -0.74535,-0.211415 -0.12061,-0.110135 0.379351,0.0984 0.489493,-0.02222 0.07788,-0.08528 -0.170574,-0.155759 -0.255857,-0.233636 -0.08528,-0.07788 -0.170573,-0.155759 -0.255856,-0.233636 -0.08528,-0.07787 -0.177981,-0.318919 -0.255857,-0.233635 -0.110142,0.120617 0.18538,0.482085 0.02222,0.489492 -0.230753,0.01048 -0.34114,-0.311512 -0.511714,-0.467272 -0.08528,-0.07787 0.341147,0.311519 0.255857,0.233636 -0.170566,-0.155753 -0.341133,-0.311505 -0.511714,-0.467272 -0.08528,-0.07788 0.333734,0.148353 0.255857,0.233636 -0.07788,0.08529 -0.170566,-0.155752 -0.255857,-0.233636 -0.08528,-0.07788 -0.333739,-0.148345 -0.255856,-0.233635 0.07788,-0.08528 0.333733,0.148352 0.255856,0.233635 -0.110142,0.120618 -0.337045,-0.03639 -0.489492,0.02222 -0.10776,0.04149 -0.148346,0.33374 -0.233636,0.255857 -0.12061,-0.110136 -0.132356,-0.368868 -0.02221,-0.489486 0.07788,-0.08528 0.333725,0.148346 0.255849,0.233629 -0.110142,0.120618 -0.337039,-0.0364 -0.489485,0.02223 -0.107761,0.04149 -0.148353,0.333733 -0.233636,0.255857 -0.08529,-0.07788 0.318919,-0.177981 0.233636,-0.255857 -0.120618,-0.110142 -0.379357,-0.09839 -0.489493,0.02222 -0.07788,0.08529 0.333733,0.148352 0.255857,0.233636 -0.110143,0.120617 -0.346867,-0.05737 -0.489493,0.02222 -0.201675,0.112599 -0.311512,0.34114 -0.467272,0.511714 -0.07788,0.08528 0.318919,-0.177981 0.233636,-0.255857 -0.120618,-0.110142 -0.379357,-0.09839 -0.489492,0.02222 -0.07788,0.08528 0.250639,0.118234 0.255856,0.233636 0.0052,0.115422 -0.148352,0.333733 -0.233636,0.255857 -0.08528,-0.07788 0.238896,-0.140457 0.233636,-0.255857 -0.0052,-0.115423 -0.140464,-0.238903 -0.255856,-0.233636 -0.07205,0.0033 -0.670779,0.795082 -0.700908,0.76757 -0.08528,-0.07788 0.311512,-0.34114 0.233636,-0.255857 -0.15576,0.170574 -0.311512,0.34114 -0.467272,0.511714 -0.07788,0.08528 0.311512,-0.34114 0.233636,-0.255857 -0.80374,0.880183 -0.104498,0.114437 -1.16818,1.279284 -0.311512,0.341139 0.771385,-1.016021 0.489493,-0.02222 -0.06303,0.222219 -0.311512,0.34114 -0.467272,0.511713 -0.07788,0.08528 0.282402,-0.151173 0.233636,-0.255856 -0.616919,-1.324236 -1.423815,-2.551368 -2.135729,-3.827051"
       id="path3975"
       inkscape:connector-curvature="0"
       inkscape:export-xdpi="96"
       inkscape:export-ydpi="96" />
    <path
       style="fill:none;stroke:#000000;stroke-width:0.26458332px;stroke-linecap:butt;stroke-linejoin:miter;stroke-opacity:1"
       d="m 99.066215,104.2943 c -0.529758,-0.0357 -1.091353,0.0772 -1.589292,-0.10713 -0.365259,-0.13523 0.213873,-0.69121 0.189194,-1.23484 -0.0052,-0.11542 -0.228376,0.37126 -0.233636,0.25586 -0.01171,-0.25799 0.106518,-0.50936 0.211416,-0.74535 0.04693,-0.10553 0.238895,-0.14046 0.233635,-0.25586 -0.0052,-0.11542 -0.250639,-0.11823 -0.255856,-0.23364 -0.0052,-0.11542 0.202083,-0.14478 0.233636,-0.25585 0.0446,-0.15711 -0.06679,-0.33236 -0.02222,-0.4895 0.03155,-0.11107 0.202157,-0.14471 0.233636,-0.25585 0.0446,-0.15711 0.0364,-0.33704 -0.02222,-0.48949 -0.04149,-0.10777 -0.287373,-0.12253 -0.255857,-0.23364 0.06303,-0.22222 0.311512,-0.341141 0.467272,-0.511714 0.311512,-0.34114 -0.771377,1.016024 -0.489493,0.02222 0.06303,-0.22222 0.311513,-0.34114 0.467272,-0.511714 0.311512,-0.34114 -0.771377,1.016027 -0.489492,0.02222 0.06304,-0.222213 0.311512,-0.34114 0.467265,-0.511706 0.07788,-0.08529 -0.22837,0.37125 -0.23363,0.255849 -0.01171,-0.257984 0.223127,-0.487351 0.211416,-0.745335 -0.0052,-0.115422 -0.311512,0.34114 -0.233636,0.255857 1.383535,-1.515121 -0.938477,0.513907 0.445051,-1.001206 0.07788,-0.08529 -0.275089,0.148059 -0.233636,0.255857 0.08291,0.215594 0.34114,0.311512 0.511706,0.467265 0.511714,0.467271 1.023427,0.934543 1.535136,1.401815 0.68229,0.62303 -0.007,-0.163167 0.0222,0.48949 0.005,0.11542 0.25063,0.11824 0.25585,0.23364 0.005,0.11542 -0.31892,0.17798 -0.23363,0.25586 0.12061,0.11013 0.36888,-0.13236 0.48949,-0.0222 0.0853,0.0779 -0.2389,0.14046 -0.23364,0.25586 0.005,0.11542 0.25064,0.11823 0.25586,0.23363 0.005,0.11543 -0.14835,0.33373 -0.23363,0.25585 -0.0853,-0.0779 0.14835,-0.33372 0.23363,-0.25585 0.12061,0.11014 0.0668,0.33236 0.0222,0.48949 -0.16913,0.59628 -2.616592,0.70738 1.46847,-0.0667"
       id="path3977"
       inkscape:connector-curvature="0"
       inkscape:export-xdpi="96"
       inkscape:export-ydpi="96" />
    <path
       style="fill:#800000;stroke-width:0.34647945"
       d="m 93.002782,99.028661 c -0.361617,-0.01712 -1.14679,-0.351124 -1.744842,-0.742234 l -1.087366,-0.711094 0.975632,-0.68854 c 1.577764,-1.113465 2.315993,-1.189886 3.101365,-0.321053 0.593803,0.656933 0.602395,0.905298 0.05645,1.634349 -0.377791,0.50448 -0.915429,0.846839 -1.301243,0.828572 z"
       id="path3981"
       inkscape:connector-curvature="0"
       inkscape:export-xdpi="96"
       inkscape:export-ydpi="96" />
  </g>
</svg>
